<?xml version="1.0" encoding="UTF-8" standalone="no"?>
<!DOCTYPE svg PUBLIC "-//W3C//DTD SVG 1.1//EN" "http://www.w3.org/Graphics/SVG/1.1/DTD/svg11.dtd">
<svg width="100%" height="100%" viewBox="0 0 512 512" version="1.1" xmlns="http://www.w3.org/2000/svg" xmlns:xlink="http://www.w3.org/1999/xlink" xml:space="preserve" xmlns:serif="http://www.serif.com/" style="fill-rule:evenodd;clip-rule:evenodd;stroke-linejoin:round;stroke-miterlimit:2;">
    <g transform="matrix(0.421746,0,0,0.421746,-0.0131796,0)">
        <rect x="0.031" y="0" width="1214" height="1214"/>
        <clipPath id="_clip1">
            <rect x="0.031" y="0" width="1214" height="1214"/>
        </clipPath>
        <g clip-path="url(#_clip1)">
            <g id="Milch-Dark" transform="matrix(7.72172,0,0,7.72172,-3376.91,-1827.11)">
                <g transform="matrix(1,0,0,1,517.332,338.016)">
                    <path d="M0,41.806L-64.432,1.751C-39.779,-0.908 -13.236,-7.369 -1.184,-10.525C11.199,-7.282 38.885,-0.551 64.094,1.959L0,41.806ZM116.512,152.329C132.6,145.49 154.916,115.198 121.701,69.272C121.701,69.272 135.715,75.135 151.283,68.294C131.658,61.986 116.008,17.443 125.094,-26.621C125.863,-29.114 126.484,-31.736 126.982,-34.451C127.283,-35.545 127.596,-36.637 127.93,-37.726L127.471,-37.441C130.436,-58.096 125.967,-84.299 113.625,-111.501C92.486,-158.097 40.107,-173.344 -0.777,-174.979L-0.779,-175.016C-0.912,-175.011 -1.051,-175.003 -1.184,-174.998C-1.318,-175.003 -1.455,-175.011 -1.59,-175.016L-1.59,-174.979C-42.477,-173.344 -94.855,-158.097 -115.994,-111.501C-132.904,-74.226 -135.049,-38.819 -123.502,-17.017C-118.311,23.718 -133.088,62.445 -151.285,68.294C-135.717,75.135 -121.703,69.272 -121.703,69.272C-154.918,115.198 -132.602,145.49 -116.514,152.329C-128.969,163.567 -142.982,159.17 -142.982,159.17C-115.994,180.667 -97.83,161.613 -97.83,161.613C-100.943,188.973 -77.07,194.347 -77.07,194.347C-74.477,205.096 -81.742,208.516 -81.742,208.516C-39.186,216.822 -33.994,185.065 -33.994,185.065C-19.982,198.744 -4.932,190.927 -4.932,190.927C-20.5,183.599 -23.615,150.375 -23.615,150.375C-1.816,124.97 -3.893,84.907 -3.893,84.907L-0.002,74.196L3.891,84.907C3.891,84.907 1.814,124.97 23.613,150.375C23.613,150.375 20.498,183.599 4.93,190.927C4.93,190.927 19.98,198.744 33.992,185.065C33.992,185.065 39.184,216.822 81.74,208.516C81.74,208.516 74.473,205.096 77.068,194.347C77.068,194.347 100.941,188.973 97.828,161.613C97.828,161.613 115.992,180.667 142.98,159.17C142.98,159.17 128.967,163.567 116.512,152.329" style="fill:url(#_Linear2);fill-rule:nonzero;"/>
                </g>
                <g transform="matrix(1,0,0,1,592.844,500.118)">
                    <path d="M0,-138.267C36.328,-103.089 16.607,-59.118 -2.076,-53.744C11.418,-28.337 -43.076,0 -66.949,-38.109C-90.303,-61.115 -74.215,-83.546 -74.215,-83.546L-85.113,-114.327L0,-138.267Z" style="fill:rgb(255,184,154);fill-rule:nonzero;"/>
                </g>
                <g transform="matrix(1,0,0,1,441.818,500.118)">
                    <path d="M0,-138.267C-36.328,-103.089 -16.607,-59.118 2.076,-53.744C-11.418,-28.337 43.076,0 66.949,-38.109C90.301,-61.115 74.215,-83.546 74.215,-83.546L85.113,-114.327L0,-138.267Z" style="fill:rgb(255,184,154);fill-rule:nonzero;"/>
                </g>
                <g transform="matrix(1,0,0,1,491.246,450.719)">
                    <path d="M0,-43.062C-10.197,-20.93 -13.68,8.413 -13.68,8.413C9.945,17.862 55.451,17.117 63.658,5.926C59.68,-22.422 50.621,-43.02 50.621,-43.02L42.664,-60.924L7.957,-59.722L0,-43.062Z" style="fill:rgb(255,254,243);fill-rule:nonzero;"/>
                </g>
                <g transform="matrix(-0.861717,0.50726,0.50726,0.861717,497.489,422.761)">
                    <path d="M-14.25,-26.192C-1.038,-30.219 12.593,-29.025 15.077,-25.293C3.549,-3.213 -14.25,8.707 -14.25,8.707L-16.961,4.027C-19.987,-7.885 -14.25,-26.192 -14.25,-26.192" style="fill:rgb(255,199,229);fill-rule:nonzero;"/>
                </g>
                <g transform="matrix(-0.887083,-0.46161,-0.46161,0.887083,537.831,423.655)">
                    <path d="M16.487,-26.553C3.084,-29.884 -12.29,-28.353 -14.576,-24.497C-1.911,-3.049 16.487,7.926 16.487,7.926L19.236,4.159C21.636,-7.895 16.487,-26.553 16.487,-26.553" style="fill:rgb(255,199,229);fill-rule:nonzero;"/>
                </g>
                <g transform="matrix(0.552069,0.83372,0.83372,-0.552069,511.969,377.808)">
                    <path d="M2.23,-17.677L8.195,-17.677C21.077,-14.615 26.127,3.275 23.942,7.455C22.821,9.596 21.215,11.894 21.215,11.894L2.23,-17.677Z" style="fill:rgb(255,199,229);fill-rule:nonzero;"/>
                </g>
                <g transform="matrix(1,0,0,1,581.241,395.194)">
                    <path d="M0,-148.861L-64.447,-139.397L-128.896,-148.861C-165.564,-90.194 -134.23,-40.194 -134.23,-40.194C-142.383,-22.635 -114.549,-0.948 -76.811,-0.657C-66.152,0 -56.373,-0.102 -47.988,-0.771C-12.361,-2.525 13.189,-23.277 5.334,-40.194C5.334,-40.194 36.668,-90.194 0,-148.861" style="fill:rgb(255,254,243);fill-rule:nonzero;"/>
                    <g transform="matrix(3.81178,0,0,3.81178,-428.837,-408.669)">
                        <circle cx="115.062" cy="95.734" r="2.112" style="fill:rgb(255,254,243);"/>
                    </g>
                    <g transform="matrix(3.81178,0,0,3.81178,-577.241,-408.731)">
                        <circle cx="115.062" cy="95.734" r="2.112" style="fill:rgb(255,254,243);"/>
                    </g>
                </g>
                <g transform="matrix(1,0,0,1,439.875,192.001)">
                    <path d="M0,117.333C44,80.666 134.666,102.666 148.666,115.333C162.666,128 150.666,40.666 150.666,40.666L129.334,7.333L69.334,-10.667L36.666,4.666L6,36L0,117.333Z" style="fill:rgb(255,253,120);fill-rule:nonzero;"/>
                </g>
                <g transform="matrix(-6.9e-06,-158.784,-158.784,6.9e-06,548.99,374)">
                    <path d="M0.949,-0.092C0.563,-0.378 -0.08,-0.214 -0.168,-0.147C-0.126,-0.269 -0.034,-0.319 -0.034,-0.319C-0.139,-0.395 -0.134,-0.508 -0.134,-0.508C0.155,-0.445 0.361,-0.483 0.626,-0.458C0.89,-0.432 1.239,-0.269 1.251,0.038C1.251,0.044 1.252,0.05 1.252,0.055C1.252,0.327 0.949,-0.092 0.949,-0.092Z" style="fill:url(#_Linear3);fill-rule:nonzero;"/>
                </g>
                <g transform="matrix(-6.9e-06,-158.784,-158.784,6.9e-06,483.167,374)">
                    <path d="M1.251,-0.039C1.239,0.267 0.89,0.431 0.626,0.456C0.361,0.482 0.155,0.444 -0.134,0.507C-0.134,0.507 -0.139,0.393 -0.034,0.318C-0.034,0.318 -0.126,0.267 -0.168,0.146C-0.08,0.213 0.588,0.382 0.974,0.097C0.974,0.097 1.252,-0.327 1.252,-0.058C1.252,-0.052 1.251,-0.046 1.251,-0.039Z" style="fill:url(#_Linear4);fill-rule:nonzero;"/>
                </g>
                <g transform="matrix(0.999994,-0.00349756,-0.00349756,-0.999994,471.367,361.036)">
                    <path d="M-0.084,0.001C11.62,-0.74 14.485,14.567 14.003,24.891C13.534,34.988 9.776,48.377 -0.084,48.606C-10.181,48.842 -13.939,32.64 -13.939,23.717C-13.939,18.736 -13.226,0.833 -0.084,0.001" style="fill:rgb(24,0,86);fill-rule:nonzero;"/>
                </g>
                <g transform="matrix(0.999994,-0.00349756,-0.00349756,-0.999994,471.367,365.263)">
                    <path d="M-0.084,0.001C11.62,-0.74 14.485,14.567 14.003,24.891C13.534,34.988 9.776,48.377 -0.084,48.606C-10.181,48.842 -13.939,32.64 -13.939,23.717C-13.939,18.736 -13.226,0.833 -0.084,0.001" style="fill:url(#_Linear5);fill-rule:nonzero;"/>
                </g>
                <g transform="matrix(1,0,0,1,479.203,339.895)">
                    <path d="M0,-3.654C-0.143,-4.093 -0.521,-4.413 -0.979,-4.479L-4.703,-5.021L-6.369,-8.396C-6.574,-8.809 -6.996,-9.071 -7.457,-9.071C-7.918,-9.071 -8.34,-8.809 -8.543,-8.396L-10.209,-5.021L-13.934,-4.479C-14.391,-4.413 -14.77,-4.093 -14.912,-3.654C-15.055,-3.215 -14.938,-2.733 -14.605,-2.411L-11.91,0.216L-12.547,3.926C-12.625,4.38 -12.438,4.84 -12.064,5.111C-11.693,5.382 -11.197,5.417 -10.787,5.203L-7.457,3.452L-4.125,5.203C-3.947,5.296 -3.754,5.343 -3.561,5.343C-3.311,5.343 -3.059,5.264 -2.848,5.111C-2.475,4.84 -2.289,4.38 -2.365,3.926L-3.002,0.216L-0.307,-2.411C0.023,-2.733 0.143,-3.215 0,-3.654" style="fill:rgb(255,241,25);fill-rule:nonzero;"/>
                </g>
                <g transform="matrix(1,0,0,1,462.297,323.42)">
                    <path d="M0,-3.804C-6.277,-3.043 -12.744,-7.228 -12.744,-7.228C-10.271,3.234 -3.424,3.424 -3.424,3.424L0,-3.804Z" style="fill:rgb(24,0,86);fill-rule:nonzero;"/>
                </g>
                <g transform="matrix(0.999994,-0.00353871,-0.00353871,-0.999994,559.975,361.036)">
                    <path d="M-0.085,0.001C11.619,-0.74 14.485,14.567 14.003,24.89C13.535,34.987 9.777,48.377 -0.085,48.606C-10.182,48.842 -13.939,32.64 -13.939,23.717C-13.939,18.736 -13.228,0.834 -0.085,0.001" style="fill:rgb(24,0,86);fill-rule:nonzero;"/>
                </g>
                <g transform="matrix(0.999994,-0.00353871,-0.00353871,-0.999994,559.975,365.263)">
                    <path d="M-0.085,0.001C11.619,-0.74 14.485,14.567 14.003,24.89C13.535,34.987 9.777,48.377 -0.085,48.606C-10.182,48.842 -13.939,32.64 -13.939,23.717C-13.939,18.736 -13.228,0.834 -0.085,0.001" style="fill:url(#_Linear6);fill-rule:nonzero;"/>
                </g>
                <g transform="matrix(1,0,0,1,567.81,339.895)">
                    <path d="M0,-3.654C-0.145,-4.093 -0.523,-4.413 -0.979,-4.479L-4.705,-5.021L-6.369,-8.396C-6.574,-8.809 -6.996,-9.071 -7.457,-9.071C-7.918,-9.071 -8.34,-8.809 -8.545,-8.396L-10.211,-5.021L-13.936,-4.479C-14.391,-4.413 -14.771,-4.093 -14.914,-3.654C-15.057,-3.215 -14.938,-2.733 -14.607,-2.411L-11.912,0.216L-12.547,3.926C-12.625,4.38 -12.439,4.84 -12.066,5.111C-11.693,5.382 -11.197,5.417 -10.789,5.203L-7.457,3.452L-4.125,5.203C-3.947,5.296 -3.754,5.343 -3.561,5.343C-3.311,5.343 -3.061,5.264 -2.85,5.111C-2.475,4.84 -2.289,4.38 -2.367,3.926L-3.004,0.216L-0.309,-2.411C0.023,-2.733 0.143,-3.215 0,-3.654" style="fill:rgb(255,241,25);fill-rule:nonzero;"/>
                </g>
                <g transform="matrix(1,0,0,1,568.783,323.42)">
                    <path d="M0,-3.804C6.277,-3.043 12.744,-7.228 12.744,-7.228C10.271,3.234 3.424,3.424 3.424,3.424L0,-3.804Z" style="fill:rgb(24,0,86);fill-rule:nonzero;"/>
                </g>
                <g transform="matrix(1,0,0,1,514.743,349.055)">
                    <path d="M0,4.945C-2.959,4.138 -3.232,0.19 -0.76,-0.191C1.713,-0.571 1.713,0.95 1.332,1.902C0.951,2.853 2.092,5.516 0,4.945" style="fill:rgb(158,128,155);fill-rule:nonzero;"/>
                </g>
                <g transform="matrix(1,0,0,1,2.05964,0)">
                    <g>
                        <g>
                            <g>
                                <g>
                                    <clipPath id="_clip7">
                                        <path d="M474.481,196.667L443.814,227.999L437.814,309.333C481.814,272.666 572.48,294.666 586.48,307.333C600.481,320 588.48,232.667 588.48,232.667L567.148,199.333L507.148,181.333L474.481,196.667Z"/>
                                    </clipPath>
                                    <g clip-path="url(#_clip7)">
                                        <g transform="matrix(1,0,0,1,492.867,296.158)">
                                            <path d="M0,-59.634C-15.988,-31.113 -12.531,1.729 -12.531,1.729L-0.863,0.432C-6.48,-28.953 0.434,-61.363 0.434,-61.363" style="fill:rgb(255,197,173);fill-rule:nonzero;"/>
                                        </g>
                                        <g transform="matrix(1,0,0,1,470.396,311.716)">
                                            <path d="M0,-59.634C-15.988,-31.113 -12.531,1.729 -12.531,1.729L-0.863,0.432C-6.48,-28.953 0.434,-61.363 0.434,-61.363" style="fill:rgb(255,197,173);fill-rule:nonzero;"/>
                                        </g>
                                        <g transform="matrix(1,0,0,1,536.631,296.158)">
                                            <path d="M0,-59.634C15.988,-31.113 12.531,1.729 12.531,1.729L0.863,0.432C6.48,-28.953 -0.434,-61.363 -0.434,-61.363" style="fill:rgb(255,197,173);fill-rule:nonzero;"/>
                                        </g>
                                        <g transform="matrix(1,0,0,1,559.102,311.716)">
                                            <path d="M0,-59.634C15.988,-31.113 12.531,1.729 12.531,1.729L0.863,0.432C6.48,-28.953 -0.434,-61.363 -0.434,-61.363" style="fill:rgb(255,197,173);fill-rule:nonzero;"/>
                                        </g>
                                    </g>
                                </g>
                            </g>
                        </g>
                    </g>
                </g>
                <g transform="matrix(1,0,0,1,497.431,386.937)">
                    <path d="M0,-17.01C10.216,-20.336 29.389,-20.573 36.99,-17.723C31,-0.437 7.496,3.563 0,-17.01" style="fill:rgb(255,162,199);fill-rule:nonzero;"/>
                </g>
            </g>
        </g>
    </g>
    <defs>
        <linearGradient id="_Linear2" x1="0" y1="0" x2="1" y2="0" gradientUnits="userSpaceOnUse" gradientTransform="matrix(2.35694e-14,384.917,-384.917,2.35694e-14,0,-175.016)"><stop offset="0" style="stop-color:rgb(255,253,120);stop-opacity:1"/><stop offset="0.58" style="stop-color:rgb(255,240,140);stop-opacity:1"/><stop offset="0.8" style="stop-color:rgb(255,213,183);stop-opacity:1"/><stop offset="1" style="stop-color:rgb(255,187,225);stop-opacity:1"/></linearGradient>
        <linearGradient id="_Linear3" x1="0" y1="0" x2="1" y2="0" gradientUnits="userSpaceOnUse" gradientTransform="matrix(1,0,0,1,0,-0.180481)"><stop offset="0" style="stop-color:rgb(255,253,120);stop-opacity:1"/><stop offset="1" style="stop-color:rgb(255,253,120);stop-opacity:1"/></linearGradient>
        <linearGradient id="_Linear4" x1="0" y1="0" x2="1" y2="0" gradientUnits="userSpaceOnUse" gradientTransform="matrix(1,0,0,1,0,0.179777)"><stop offset="0" style="stop-color:rgb(255,253,120);stop-opacity:1"/><stop offset="1" style="stop-color:rgb(255,253,120);stop-opacity:1"/></linearGradient>
        <linearGradient id="_Linear5" x1="0" y1="0" x2="1" y2="0" gradientUnits="userSpaceOnUse" gradientTransform="matrix(0.170085,48.6294,-48.6294,0.170085,0.999909,-0.0259392)"><stop offset="0" style="stop-color:rgb(0,231,255);stop-opacity:1"/><stop offset="1" style="stop-color:rgb(0,231,255);stop-opacity:1"/></linearGradient>
        <linearGradient id="_Linear6" x1="0" y1="0" x2="1" y2="0" gradientUnits="userSpaceOnUse" gradientTransform="matrix(0.172086,48.6294,-48.6294,0.172086,-7.94149e-05,-0.0224416)"><stop offset="0" style="stop-color:rgb(0,231,255);stop-opacity:1"/><stop offset="1" style="stop-color:rgb(0,231,255);stop-opacity:1"/></linearGradient>
    </defs>
</svg>
