<?xml version="1.0" encoding="UTF-8" standalone="no"?>
<!DOCTYPE svg PUBLIC "-//W3C//DTD SVG 1.1//EN" "http://www.w3.org/Graphics/SVG/1.1/DTD/svg11.dtd">
<svg width="100%" height="100%" viewBox="0 0 18 22" version="1.1" xmlns="http://www.w3.org/2000/svg" xmlns:xlink="http://www.w3.org/1999/xlink" xml:space="preserve" xmlns:serif="http://www.serif.com/" style="fill-rule:evenodd;clip-rule:evenodd;stroke-linejoin:round;stroke-miterlimit:2;">
    <g transform="matrix(1,0,0,1,17.5465,11.0855)">
        <path d="M0,-0.171L-6.349,-0.927L-2.398,-5.404L-2.408,-5.539L-2.557,-5.549L-7.547,-2.138L-8.342,-10.928L-8.457,-11.02L-8.567,-10.929L-9.51,-2.144L-14.482,-5.636L-14.631,-5.63L-14.642,-5.498L-10.734,-0.958L-17.088,-0.294L-17.191,-0.194L-17.091,-0.095L-10.743,0.657L-14.692,5.138L-14.684,5.272L-14.534,5.283L-9.555,1.876L-8.75,10.764L-8.637,10.849L-8.523,10.762L-7.572,1.882L-2.607,5.367L-2.459,5.36L-2.449,5.227L-6.355,0.692L-0.002,0.028L0.098,-0.069L0,-0.171Z" style="fill-rule:nonzero;"/>
    </g>
</svg>
