<?xml version="1.0" encoding="UTF-8" standalone="no"?>
<!DOCTYPE svg PUBLIC "-//W3C//DTD SVG 1.1//EN" "http://www.w3.org/Graphics/SVG/1.1/DTD/svg11.dtd">
<svg width="100%" height="100%" viewBox="0 0 161 203" version="1.1" xmlns="http://www.w3.org/2000/svg" xmlns:xlink="http://www.w3.org/1999/xlink" xml:space="preserve" xmlns:serif="http://www.serif.com/" style="fill-rule:evenodd;clip-rule:evenodd;stroke-miterlimit:10;">
    <g id="Milch" transform="matrix(0.496893,0,0,0.496893,-176.47,-80.6978)">
        <g transform="matrix(1,0,0,1,517.332,338.016)">
            <path d="M0,41.806L-64.432,1.751C-39.779,-0.908 -13.236,-7.369 -1.184,-10.525C11.199,-7.282 38.885,-0.551 64.094,1.959L0,41.806ZM116.512,152.329C132.6,145.49 154.916,115.198 121.701,69.272C121.701,69.272 135.715,75.135 151.283,68.294C131.658,61.986 116.008,17.443 125.094,-26.621C125.863,-29.114 126.484,-31.736 126.982,-34.451C127.283,-35.545 127.596,-36.637 127.93,-37.726L127.471,-37.441C130.436,-58.096 125.967,-84.299 113.625,-111.501C92.486,-158.097 40.107,-173.344 -0.777,-174.979L-0.779,-175.016C-0.912,-175.011 -1.051,-175.003 -1.184,-174.998C-1.318,-175.003 -1.455,-175.011 -1.59,-175.016L-1.59,-174.979C-42.477,-173.344 -94.855,-158.097 -115.994,-111.501C-132.904,-74.226 -135.049,-38.819 -123.502,-17.017C-118.311,23.718 -133.088,62.445 -151.285,68.294C-135.717,75.135 -121.703,69.272 -121.703,69.272C-154.918,115.198 -132.602,145.49 -116.514,152.329C-128.969,163.567 -142.982,159.17 -142.982,159.17C-115.994,180.667 -97.83,161.613 -97.83,161.613C-100.943,188.973 -77.07,194.347 -77.07,194.347C-74.477,205.096 -81.742,208.516 -81.742,208.516C-39.186,216.822 -33.994,185.065 -33.994,185.065C-19.982,198.744 -4.932,190.927 -4.932,190.927C-20.5,183.599 -23.615,150.375 -23.615,150.375C-1.816,124.97 -3.893,84.907 -3.893,84.907L-0.002,74.196L3.891,84.907C3.891,84.907 1.814,124.97 23.613,150.375C23.613,150.375 20.498,183.599 4.93,190.927C4.93,190.927 19.98,198.744 33.992,185.065C33.992,185.065 39.184,216.822 81.74,208.516C81.74,208.516 74.473,205.096 77.068,194.347C77.068,194.347 100.941,188.973 97.828,161.613C97.828,161.613 115.992,180.667 142.98,159.17C142.98,159.17 128.967,163.567 116.512,152.329" style="fill:url(#_Linear1);fill-rule:nonzero;"/>
        </g>
        <g transform="matrix(1,0,0,1,592.844,500.118)">
            <path d="M0,-138.267C36.328,-103.089 16.607,-59.118 -2.076,-53.744C11.418,-28.337 -43.076,0 -66.949,-38.109C-90.303,-61.115 -74.215,-83.546 -74.215,-83.546L-85.113,-114.327L0,-138.267Z" style="fill:rgb(255,184,154);fill-rule:nonzero;"/>
        </g>
        <g transform="matrix(-0.629246,-0.777206,-0.777206,0.629246,448.433,436.355)">
            <path d="M-51.98,4.519C-28.724,41.784 14.997,39.104 32.13,19.891C3.796,64.868 -39.184,48.546 -51.98,37.906C-73.137,20.314 -71.269,0.105 -60.166,-19.57C-49.062,-39.243 -51.98,4.519 -51.98,4.519" style="fill:rgb(255,184,154);fill-rule:nonzero;"/>
        </g>
        <g transform="matrix(-0.629246,0.777206,0.777206,0.629246,586.227,436.356)">
            <path d="M51.978,4.52C28.722,41.784 -14.999,39.105 -32.132,19.892C-3.798,64.868 39.182,48.547 51.978,37.907C73.136,20.315 71.267,0.106 60.165,-19.569C49.062,-39.243 51.978,4.52 51.978,4.52" style="fill:rgb(255,184,154);fill-rule:nonzero;"/>
        </g>
        <g transform="matrix(1,0,0,1,461.354,522.967)">
            <path d="M0,-3.654C-0.143,-4.092 -0.521,-4.413 -0.979,-4.479L-4.703,-5.02L-6.369,-8.395C-6.574,-8.809 -6.994,-9.071 -7.457,-9.071C-7.918,-9.071 -8.34,-8.809 -8.543,-8.395L-10.209,-5.02L-13.934,-4.479C-14.391,-4.413 -14.77,-4.092 -14.912,-3.654C-15.055,-3.216 -14.936,-2.733 -14.605,-2.411L-11.91,0.216L-12.547,3.925C-12.625,4.38 -12.438,4.839 -12.064,5.111C-11.691,5.382 -11.195,5.417 -10.787,5.203L-7.457,3.452L-4.125,5.203C-3.947,5.296 -3.754,5.343 -3.561,5.343C-3.309,5.343 -3.059,5.265 -2.848,5.111C-2.475,4.839 -2.287,4.38 -2.365,3.925L-3.002,0.216L-0.307,-2.411C0.023,-2.733 0.143,-3.216 0,-3.654" style="fill:rgb(255,213,0);fill-rule:nonzero;"/>
        </g>
        <g transform="matrix(1,0,0,1,434.823,494.196)">
            <path d="M0,-3.654C-0.143,-4.092 -0.521,-4.413 -0.979,-4.479L-4.703,-5.02L-6.369,-8.395C-6.572,-8.809 -6.994,-9.071 -7.455,-9.071C-7.918,-9.071 -8.338,-8.809 -8.543,-8.395L-10.209,-5.02L-13.934,-4.479C-14.391,-4.413 -14.77,-4.092 -14.912,-3.654C-15.055,-3.216 -14.936,-2.733 -14.605,-2.411L-11.91,0.216L-12.547,3.925C-12.625,4.38 -12.438,4.839 -12.064,5.111C-11.691,5.382 -11.195,5.417 -10.787,5.203L-7.455,3.452L-4.125,5.203C-3.947,5.296 -3.754,5.343 -3.561,5.343C-3.309,5.343 -3.059,5.265 -2.848,5.111C-2.475,4.839 -2.287,4.38 -2.365,3.925L-3.002,0.216L-0.307,-2.411C0.023,-2.733 0.143,-3.216 0,-3.654" style="fill:rgb(255,213,0);fill-rule:nonzero;"/>
        </g>
        <g transform="matrix(1,0,0,1,589.707,518.57)">
            <path d="M0,-3.654C-0.143,-4.092 -0.521,-4.413 -0.979,-4.479L-4.703,-5.02L-6.369,-8.395C-6.574,-8.809 -6.994,-9.071 -7.457,-9.071C-7.918,-9.071 -8.34,-8.809 -8.543,-8.395L-10.209,-5.02L-13.934,-4.479C-14.391,-4.413 -14.77,-4.092 -14.912,-3.654C-15.055,-3.216 -14.936,-2.733 -14.605,-2.411L-11.91,0.216L-12.547,3.925C-12.625,4.38 -12.438,4.839 -12.064,5.111C-11.691,5.382 -11.195,5.417 -10.787,5.203L-7.457,3.452L-4.125,5.203C-3.947,5.296 -3.754,5.343 -3.561,5.343C-3.309,5.343 -3.059,5.265 -2.848,5.111C-2.475,4.839 -2.287,4.38 -2.365,3.925L-3.002,0.216L-0.307,-2.411C0.023,-2.733 0.143,-3.216 0,-3.654" style="fill:rgb(255,213,0);fill-rule:nonzero;"/>
        </g>
        <g transform="matrix(1,0,0,1,614.684,493.852)">
            <path d="M0,-3.654C-0.143,-4.092 -0.521,-4.413 -0.979,-4.479L-4.703,-5.02L-6.369,-8.395C-6.572,-8.809 -6.994,-9.071 -7.455,-9.071C-7.918,-9.071 -8.338,-8.809 -8.543,-8.395L-10.209,-5.02L-13.934,-4.479C-14.391,-4.413 -14.77,-4.092 -14.912,-3.654C-15.055,-3.216 -14.936,-2.733 -14.605,-2.411L-11.91,0.216L-12.547,3.925C-12.625,4.38 -12.438,4.839 -12.064,5.111C-11.691,5.382 -11.195,5.417 -10.787,5.203L-7.455,3.452L-4.125,5.203C-3.947,5.296 -3.754,5.343 -3.561,5.343C-3.309,5.343 -3.059,5.265 -2.848,5.111C-2.475,4.839 -2.287,4.38 -2.365,3.925L-3.002,0.216L-0.307,-2.411C0.023,-2.733 0.143,-3.216 0,-3.654" style="fill:rgb(255,213,0);fill-rule:nonzero;"/>
        </g>
        <g transform="matrix(1,0,0,1,441.818,500.118)">
            <path d="M0,-138.267C-36.328,-103.089 -16.607,-59.118 2.076,-53.744C-11.418,-28.337 43.076,0 66.949,-38.109C90.301,-61.115 74.215,-83.546 74.215,-83.546L85.113,-114.327L0,-138.267Z" style="fill:rgb(255,184,154);fill-rule:nonzero;"/>
        </g>
        <g transform="matrix(1,0,0,1,501.953,471.358)">
            <path d="M0,-15.777C-6.09,-19.549 -16.709,-24.631 -30.286,-25.525C-32.62,-16.191 -24.286,-7.525 -24.286,-7.525C-27.62,-0.192 -31.529,9.08 -28.197,9.414C-24.863,9.748 -9.197,4.082 -2.529,-5.252C4.137,-14.586 0,-15.777 0,-15.777" style="fill:rgb(255,90,171);fill-rule:nonzero;"/>
        </g>
        <g transform="matrix(1,0,0,1,531.69,471.358)">
            <path d="M0,-15.777C6.09,-19.549 16.709,-24.631 30.286,-25.525C32.62,-16.191 24.286,-7.525 24.286,-7.525C27.62,-0.192 31.529,9.08 28.197,9.414C24.863,9.748 9.197,4.082 2.529,-5.252C-4.137,-14.586 0,-15.777 0,-15.777" style="fill:rgb(255,90,171);fill-rule:nonzero;"/>
        </g>
        <g>
            <g>
                <g>
                    <g>
                        <g>
                            <clipPath id="_clip2">
                                <path d="M516.148,163.018C516.014,163.014 515.877,163.005 515.742,163L515.742,163.037C474.855,164.673 422.476,179.919 401.338,226.515C384.428,263.79 382.283,299.198 393.83,320.999C399.021,361.735 384.244,400.461 366.047,406.311C381.615,413.152 395.629,407.288 395.629,407.288C362.414,453.214 384.73,483.506 400.819,490.346C388.363,501.583 374.35,497.187 374.35,497.187C401.338,518.684 419.502,499.629 419.502,499.629C416.389,526.989 440.262,532.363 440.262,532.363C442.856,543.113 435.59,546.533 435.59,546.533C478.147,554.838 483.338,523.081 483.338,523.081C497.35,536.76 512.401,528.943 512.401,528.943C496.832,521.615 493.717,488.392 493.717,488.392C515.516,462.987 513.439,422.923 513.439,422.923L517.33,412.212L521.222,422.923C521.222,422.923 519.146,462.987 540.945,488.392C540.945,488.392 537.83,521.615 522.262,528.943C522.262,528.943 537.313,536.76 551.324,523.081C551.324,523.081 556.516,554.838 599.072,546.533C599.072,546.533 591.805,543.113 594.401,532.363C594.401,532.363 618.273,526.989 615.16,499.629C615.16,499.629 633.325,518.684 660.313,497.187C660.313,497.187 646.299,501.583 633.844,490.346C649.931,483.506 672.248,453.214 639.033,407.288C639.033,407.288 653.047,413.152 668.615,406.311C648.99,400.002 633.34,355.459 642.425,311.395C643.195,308.902 643.817,306.281 644.315,303.565C644.615,302.471 644.927,301.38 645.261,300.29L644.802,300.575C647.768,279.92 643.298,253.717 630.957,226.515C609.818,179.919 557.439,164.673 516.555,163.037L516.552,163C516.42,163.005 516.281,163.014 516.148,163.018ZM452.901,339.768C477.553,337.107 504.095,330.647 516.148,327.492C528.531,330.734 556.217,337.465 581.426,339.975L517.332,379.822L452.901,339.768Z"/>
                            </clipPath>
                            <g clip-path="url(#_clip2)">
                                <g transform="matrix(1,0,0,1,394.666,317)">
                                    <path d="M0,-73C-10.5,-30.5 14.5,0 14.5,0L17.5,-6C-1,-30 0,-73 0,-73" style="fill:rgb(255,197,173);fill-rule:nonzero;"/>
                                </g>
                                <g transform="matrix(1,0,0,1,445.166,234.5)">
                                    <path d="M0,-30C-31,-28.5 -49.5,0 -49.5,0C-28.5,-12 -7.5,-10.5 -7.5,-10.5L0,-30Z" style="fill:rgb(255,197,173);fill-rule:nonzero;"/>
                                </g>
                                <g transform="matrix(1,0,0,1,396.166,300.5)">
                                    <path d="M0,-63.5C-9.5,-40 8.5,-12 18,-6C27.5,0 22,-25 22,-25C-3.5,-33.5 0,-63.5 0,-63.5" style="fill:rgb(255,197,173);fill-rule:nonzero;"/>
                                </g>
                                <g transform="matrix(-0.956881,0.290482,0.290482,0.956881,437.961,370.089)">
                                    <path d="M28.894,-88.289C30.492,-53.765 19.231,-40.941 11.739,-32.918C4.246,-24.896 28.894,-0.504 28.894,-0.504C23.281,-32.764 37.25,-52.158 37.25,-52.158L28.894,-88.289Z" style="fill:rgb(255,184,154);fill-rule:nonzero;"/>
                                </g>
                                <g transform="matrix(1,0,0,1,637.166,317)">
                                    <path d="M0,-73C10.5,-30.5 -14.5,0 -14.5,0L-17.5,-6C1,-30 0,-73 0,-73" style="fill:rgb(255,197,173);fill-rule:nonzero;"/>
                                </g>
                                <g transform="matrix(1,0,0,1,586.666,234.5)">
                                    <path d="M0,-30C31,-28.5 49.5,0 49.5,0C28.5,-12 7.5,-10.5 7.5,-10.5L0,-30Z" style="fill:rgb(255,197,173);fill-rule:nonzero;"/>
                                </g>
                                <g transform="matrix(1,0,0,1,635.666,300.5)">
                                    <path d="M0,-63.5C9.5,-40 -8.5,-12 -18,-6C-27.5,0 -22,-25 -22,-25C3.5,-33.5 0,-63.5 0,-63.5" style="fill:rgb(255,197,173);fill-rule:nonzero;"/>
                                </g>
                                <g transform="matrix(-0.956881,-0.290482,-0.290482,0.956881,593.871,370.089)">
                                    <path d="M-28.894,-88.289C-30.492,-53.765 -19.231,-40.941 -11.739,-32.918C-4.246,-24.896 -28.894,-0.504 -28.894,-0.504C-23.281,-32.764 -37.25,-52.158 -37.25,-52.158L-28.894,-88.289Z" style="fill:rgb(255,184,154);fill-rule:nonzero;"/>
                                </g>
                            </g>
                        </g>
                    </g>
                </g>
            </g>
        </g>
        <g transform="matrix(1,0,0,1,635.713,286.61)">
            <path d="M0,-56.675C29.582,-64.492 56.051,-16.612 32.178,7.817C38.924,-27.849 2.076,-44.461 2.076,-44.461L-2.076,-56.675" style="fill:url(#_Linear3);fill-rule:nonzero;"/>
        </g>
        <g transform="matrix(1,0,0,1,630.957,250.455)">
            <path d="M0,-23.94C6.748,-24.429 12.457,-6.352 7.785,-2.931C3.115,0.489 0,-23.94 0,-23.94" style="fill:rgb(255,254,242);fill-rule:nonzero;"/>
        </g>
        <g transform="matrix(1,0,0,1,396.582,286.61)">
            <path d="M0,-56.675C-29.582,-64.492 -56.05,-16.612 -32.178,7.817C-38.924,-27.849 -2.076,-44.461 -2.076,-44.461L2.076,-56.675" style="fill:url(#_Linear4);fill-rule:nonzero;"/>
        </g>
        <g transform="matrix(1,0,0,1,401.338,250.455)">
            <path d="M0,-23.94C-6.748,-24.429 -12.457,-6.352 -7.785,-2.931C-3.113,0.489 0,-23.94 0,-23.94" style="fill:rgb(255,254,242);fill-rule:nonzero;"/>
        </g>
        <g transform="matrix(0.999934,0,0,0.999934,562.664,543.954)">
            <path d="M-47.297,-14.189C-49.658,-11.407 -55.115,-5.779 -65.799,1.631C-65.799,1.631 -95.69,-20.817 -93.69,-55.817L0,-54.186C2,-19.186 -25.799,1.631 -25.799,1.631C-36.38,-5.707 -41.835,-11.298 -44.232,-14.108L-43.429,-13.686C-43.3,-13.619 -43.162,-13.585 -43.021,-13.585C-42.839,-13.585 -42.658,-13.642 -42.506,-13.753C-42.234,-13.95 -42.099,-14.283 -42.156,-14.612L-42.617,-17.297L-40.666,-19.2C-40.425,-19.433 -40.339,-19.783 -40.443,-20.1C-40.547,-20.417 -40.82,-20.649 -41.152,-20.697L-43.849,-21.089L-45.054,-23.533C-45.203,-23.832 -45.507,-24.022 -45.841,-24.022C-46.175,-24.022 -46.482,-23.832 -46.629,-23.533L-47.836,-21.089L-50.533,-20.697C-50.863,-20.649 -51.138,-20.417 -51.24,-20.1C-51.343,-19.783 -51.257,-19.433 -51.019,-19.2L-49.068,-17.297L-49.527,-14.612C-49.584,-14.283 -49.449,-13.95 -49.179,-13.753C-48.91,-13.557 -48.55,-13.532 -48.254,-13.686L-47.297,-14.189Z" style="fill:rgb(173,91,129);"/>
        </g>
        <g transform="matrix(1,0,0,1,551.74,560.5)">
            <path d="M0,-6.5C5.244,-11.052 15,-12.75 15.25,-9C15.5,-5.25 8.25,-4.5 8.25,-4.5C11.5,-0.25 4.25,-0.5 4.25,-0.5C4.75,5 -0.75,6.25 -2.25,1.75C-3.75,-2.75 0,-6.5 0,-6.5" style="fill:rgb(241,216,230);fill-rule:nonzero;"/>
        </g>
        <g transform="matrix(1,0,0,1,538.205,475.331)">
            <path d="M0,47.935C3.918,47.855 10.924,46.103 15.533,44.831C16.055,32.495 18.535,9.169 18.535,9.169C18.535,9.169 -14.465,-0.581 -16.965,18.169C-17.582,29.451 -17.531,39.003 -17.107,45.842C-11.1,48.516 -5.314,48.044 0,47.935" style="fill:rgb(252,234,216);fill-rule:nonzero;"/>
        </g>
        <g transform="matrix(1,0,0,1,529.49,527.911)">
            <path d="M0,31.839C-0.25,35.339 -0.5,38.089 4,38.839C8.5,39.589 16,39.089 21.75,32.089C27.5,25.089 25,5.339 24.25,-1.411C24.111,-2.67 24.127,-4.922 24.248,-7.75C19.639,-6.477 12.633,-4.725 8.715,-4.645C3.4,-4.536 -2.385,-4.064 -8.393,-6.738C-8.131,-2.514 -7.727,0.68 -7.25,2.589C-6,7.589 0.25,28.339 0,31.839" style="fill:rgb(255,254,243);fill-rule:nonzero;"/>
        </g>
        <g transform="matrix(1,0,0,1,-1.91245,0)">
            <g>
                <g>
                    <g>
                        <g>
                            <clipPath id="_clip5">
                                <path d="M523.152,493.5C522.152,511.75 522.903,525.5 524.152,530.5C525.402,535.5 531.652,556.25 531.402,559.75C531.152,563.25 530.902,566 535.402,566.75C539.902,567.5 547.402,567 553.153,560C558.903,553 556.402,533.25 555.652,526.5C554.902,519.75 558.652,484.5 558.652,484.5C558.652,484.5 550.075,481.967 541.336,481.966C532.932,481.966 524.378,484.308 523.152,493.5Z"/>
                            </clipPath>
                            <g clip-path="url(#_clip5)">
                                <g transform="matrix(-0.277777,-0.960646,-0.960646,0.277777,526.588,505.266)">
                                    <path d="M-14.352,-30.79C-23.197,-15.48 -11.551,7.697 -7.83,11.565L-14.352,12.41C-25.231,3.585 -26.866,-24.569 -22.865,-29.63C-18.863,-34.69 -14.352,-30.79 -14.352,-30.79" style="fill:rgb(255,192,218);fill-rule:nonzero;"/>
                                </g>
                                <g transform="matrix(-0.277777,-0.960646,-0.960646,0.277777,526.588,518.516)">
                                    <path d="M-14.352,-30.79C-23.197,-15.48 -11.551,7.697 -7.83,11.565L-14.352,12.41C-25.231,3.585 -26.866,-24.569 -22.865,-29.63C-18.863,-34.69 -14.352,-30.79 -14.352,-30.79" style="fill:rgb(255,192,218);fill-rule:nonzero;"/>
                                </g>
                            </g>
                        </g>
                    </g>
                </g>
            </g>
        </g>
        <g transform="matrix(-0.849332,0.527859,0.527859,0.849332,543.357,515.786)">
            <path d="M4.305,-15.081C6.967,-9.376 10.581,-3.087 10.581,-3.087L4.305,1.229L-2.114,-10.53L4.305,-15.081Z" style="fill:rgb(255,254,243);fill-rule:nonzero;"/>
        </g>
        <g transform="matrix(1,0,0,1,481.896,560.5)">
            <path d="M0,-6.5C-5.242,-11.052 -15,-12.75 -15.25,-9C-15.5,-5.25 -8.25,-4.5 -8.25,-4.5C-11.5,-0.25 -4.25,-0.5 -4.25,-0.5C-4.75,5 0.75,6.25 2.25,1.75C3.75,-2.75 0,-6.5 0,-6.5" style="fill:rgb(241,216,230);fill-rule:nonzero;"/>
        </g>
        <g transform="matrix(0.714302,-0.699837,-0.699837,-0.714302,522.803,502.339)">
            <path d="M-20.306,-6.082C-15.242,-1.497 -8.602,5.217 -1.247,13.597C10.089,28.739 -20.306,44.87 -20.306,44.87C-20.306,44.87 -33.83,27.771 -42.203,18.32C-37.423,7.207 -25.318,-3.189 -20.306,-6.082" style="fill:rgb(252,234,216);fill-rule:nonzero;"/>
        </g>
        <g transform="matrix(1,0,0,1,479.896,559.788)">
            <path d="M0,-33.288C-0.75,-26.538 -3.25,-6.788 2.5,0.212C8.25,7.212 15.75,7.712 20.25,6.962C24.75,6.212 24.5,3.462 24.25,-0.038C24,-3.538 30.25,-24.288 31.5,-29.288C31.988,-31.238 32.396,-34.534 32.658,-38.893C27.053,-37.452 11.131,-36.407 -0.061,-41C0.113,-37.531 0.162,-34.744 0,-33.288" style="fill:rgb(255,254,243);fill-rule:nonzero;"/>
        </g>
        <g transform="matrix(1,0,0,1,-2.04872,0)">
            <g>
                <g>
                    <g>
                        <g>
                            <clipPath id="_clip6">
                                <path d="M478.945,484.5C478.945,484.5 482.695,519.75 481.945,526.5C481.195,533.25 478.696,553 484.446,560C490.195,567 497.695,567.5 502.195,566.75C506.695,566 506.445,563.25 506.195,559.75C505.945,556.25 512.195,535.5 513.445,530.5C514.696,525.5 515.445,511.75 514.445,493.5C513.22,484.308 504.666,481.966 496.261,481.966C487.522,481.967 478.945,484.5 478.945,484.5Z"/>
                            </clipPath>
                            <g clip-path="url(#_clip6)">
                                <g transform="matrix(-0.277777,0.960646,0.960646,0.277777,511.01,505.266)">
                                    <path d="M14.352,-30.79C23.197,-15.48 11.551,7.697 7.83,11.565L14.352,12.41C25.231,3.585 26.866,-24.569 22.865,-29.63C18.863,-34.69 14.352,-30.79 14.352,-30.79" style="fill:rgb(255,192,218);fill-rule:nonzero;"/>
                                </g>
                                <g transform="matrix(-0.277777,0.960646,0.960646,0.277777,511.01,518.516)">
                                    <path d="M14.352,-30.79C23.197,-15.48 11.551,7.697 7.83,11.565L14.352,12.41C25.231,3.585 26.866,-24.569 22.865,-29.63C18.863,-34.69 14.352,-30.79 14.352,-30.79" style="fill:rgb(255,192,218);fill-rule:nonzero;"/>
                                </g>
                            </g>
                        </g>
                    </g>
                </g>
            </g>
        </g>
        <g transform="matrix(-0.911207,0.411949,0.411949,0.911207,504.058,516.77)">
            <path d="M4.139,-13.691C7.088,-8.988 9.663,-3.293 9.663,-3.293C8.628,-0.405 4.794,-0.412 4.139,0.133C3.696,0.501 -3.482,-11.516 -3.482,-11.516L4.139,-13.691Z" style="fill:rgb(255,254,243);fill-rule:nonzero;"/>
        </g>
        <g transform="matrix(1,0,0,1,475.897,470.913)">
            <path d="M0,31.416C9.23,48.583 25.91,38.057 25.91,38.057C37.086,48.583 54.252,41.781 57.814,37.57C68.664,43.725 80.973,37.085 80.486,30.931C80,24.776 41.619,-17.167 41.619,-17.167L0,31.416Z" style="fill:rgb(255,199,229);fill-rule:nonzero;"/>
        </g>
        <g transform="matrix(1,0,0,1,539.898,472.75)">
            <path d="M0,18C-1.75,21.25 -7,25 -7,25L-11,20.75C-11,20.75 -17.75,30.25 -23,33.25C-28.25,30.25 -35,20.75 -35,20.75L-39,25C-39,25 -44.25,21.25 -46,18L-26.25,-15.25L0,18Z" style="fill:rgb(255,90,171);fill-rule:nonzero;stroke:rgb(255,213,0);stroke-width:6.04px;"/>
        </g>
        <g transform="matrix(1,0,0,1,567.834,480.592)">
            <path d="M0,7.386C10.662,10.335 25.668,11.001 36.715,1.658C38.67,3.347 39.787,4.402 39.787,4.402C28.598,16.834 11.688,16.337 0,13.105C-11.688,9.872 -21.385,-6.292 -21.385,-6.292L-19.695,-9.448C-16.426,-4.755 -8.773,4.959 0,7.386" style="fill:rgb(255,135,194);fill-rule:nonzero;"/>
        </g>
        <g transform="matrix(0.914919,-0.403637,-0.403637,-0.914919,574.654,490.129)">
            <path d="M-5.372,4.72C-12.419,10.481 -15.5,22.458 -16.596,28.071L-5.372,41.684C15.244,30.851 26.074,4.532 30.532,-4.859C16.653,-8.948 3.193,-2.282 -5.372,4.72" style="fill:rgb(255,254,243);fill-rule:nonzero;"/>
        </g>
        <g transform="matrix(1,0,0,1,467.123,480.592)">
            <path d="M0,7.386C-10.662,10.335 -25.668,11.001 -36.715,1.658C-38.67,3.347 -39.787,4.402 -39.787,4.402C-28.598,16.834 -11.688,16.337 0,13.105C11.688,9.872 21.385,-6.292 21.385,-6.292L19.697,-9.448C16.426,-4.755 8.775,4.959 0,7.386" style="fill:rgb(255,135,194);fill-rule:nonzero;"/>
        </g>
        <g transform="matrix(0.941909,0.335868,0.335868,-0.941909,461.614,489.969)">
            <path d="M4.521,3.725C11.971,8.959 15.915,20.678 17.42,26.197L4.521,39.269C-12.957,31.345 -26.853,5.831 -31.985,-3.211C-18.442,-8.301 -4.531,-2.633 4.521,3.725" style="fill:rgb(255,254,243);fill-rule:nonzero;"/>
        </g>
        <g transform="matrix(1,0,0,1,491.246,450.719)">
            <path d="M0,-43.062C-10.197,-20.93 -13.68,8.413 -13.68,8.413C9.945,17.862 55.451,17.117 63.658,5.926C59.68,-22.422 50.621,-43.02 50.621,-43.02L42.664,-60.924L7.957,-59.722L0,-43.062Z" style="fill:rgb(255,254,243);fill-rule:nonzero;"/>
        </g>
        <g transform="matrix(-0.19684,0.980436,0.980436,0.19684,519.682,391.553)">
            <path d="M16.085,-14.698C9.484,-0.933 10.786,12.925 10.786,12.925L16.085,12.142C16.557,0.496 20.76,-11.795 20.76,-11.795L16.085,-14.698Z" style="fill:rgb(255,135,194);fill-rule:nonzero;"/>
        </g>
        <g transform="matrix(1,0,0,1,492.41,448.284)">
            <path d="M0,-40.815C-6.01,-47.384 -17.639,-45.217 -29.588,-28.165C-37.979,-16.19 -53.613,-10.645 -53.613,-10.645L-44.383,6.569C-16.461,-3.137 2.164,-18.882 3.75,-27.729C5.584,-37.95 0,-40.815 0,-40.815" style="fill:rgb(255,254,243);fill-rule:nonzero;"/>
        </g>
        <g transform="matrix(1,0,0,1,440.018,464.85)">
            <path d="M0,-25.363C10.195,-22.131 3.98,-9.697 2.488,-7.956C0.996,-6.215 -1.49,-1.242 -5.221,0.001C-8.951,1.244 -7.459,-6.713 -7.459,-6.713C-7.459,-6.713 -10.086,-6.563 -16.66,-7.46C-27.602,-8.952 -27.85,-18.649 -21.883,-21.882C-15.666,-26.607 0,-25.363 0,-25.363" style="fill:rgb(255,254,243);fill-rule:nonzero;"/>
        </g>
        <g transform="matrix(1,0,0,1,461.404,418.35)">
            <path d="M0,39.538C-5.967,39.787 -16.66,39.538 -16.66,39.538L-24.121,21.137C-15.668,3.729 -6.715,-0.249 -6.715,-0.249C4.973,5.471 3.979,20.142 0.248,25.364C9.697,31.581 0,39.538 0,39.538" style="fill:rgb(255,254,243);fill-rule:nonzero;"/>
        </g>
        <g transform="matrix(1,0,0,1,445.736,450.676)">
            <g>
                <g>
                    <g>
                        <g>
                            <clipPath id="_clip7">
                                <path d="M-8.453,-11.189L-0.992,7.212C-0.992,7.212 9.702,7.46 15.668,7.212C15.668,7.212 25.365,-0.745 15.916,-6.962C19.647,-12.184 20.641,-26.856 8.953,-32.575C8.953,-32.575 0.001,-28.597 -8.453,-11.189Z"/>
                            </clipPath>
                            <g clip-path="url(#_clip7)">
                                <path d="M0,-31.083C11.688,-25.612 11.689,-9.698 9.451,-5.222C17.408,-1.243 11.688,5.968 9.947,8.455C8.207,10.942 20.393,10.693 20.393,10.693L23.127,1.244L26.609,-22.877C26.609,-22.877 21.137,-42.025 19.895,-41.776C18.65,-41.527 5.471,-40.284 5.471,-40.284L0,-31.083Z" style="fill:rgb(255,213,0);fill-rule:nonzero;"/>
                            </g>
                        </g>
                    </g>
                </g>
            </g>
        </g>
        <g transform="matrix(-0.824643,0.565653,0.565653,0.824643,450.535,450.725)">
            <path d="M7.279,-18.897C4.168,-19.476 2.485,-18.047 2.485,-18.047C-1.034,-7.792 7.279,3.988 7.279,3.988L11.429,1.148C6.072,-7.542 7.279,-18.897 7.279,-18.897" style="fill:rgb(255,135,194);fill-rule:nonzero;"/>
        </g>
        <g transform="matrix(1,0,0,1,539.957,448.284)">
            <path d="M0,-40.815C6.008,-47.384 17.639,-45.217 29.588,-28.165C37.979,-16.19 53.611,-10.645 53.611,-10.645L44.381,6.569C16.459,-3.137 -2.164,-18.882 -3.752,-27.729C-5.584,-37.95 0,-40.815 0,-40.815" style="fill:rgb(255,254,243);fill-rule:nonzero;"/>
        </g>
        <g transform="matrix(1,0,0,1,592.348,464.85)">
            <path d="M0,-25.363C-10.195,-22.131 -3.979,-9.697 -2.486,-7.956C-0.994,-6.215 1.492,-1.242 5.223,0.001C8.953,1.244 7.461,-6.713 7.461,-6.713C7.461,-6.713 10.088,-6.563 16.662,-7.46C27.604,-8.952 27.852,-18.649 21.883,-21.882C15.666,-26.607 0,-25.363 0,-25.363" style="fill:rgb(255,254,243);fill-rule:nonzero;"/>
        </g>
        <g transform="matrix(1,0,0,1,570.961,418.35)">
            <path d="M0,39.538C5.969,39.787 16.662,39.538 16.662,39.538L24.121,21.137C15.668,3.729 6.715,-0.249 6.715,-0.249C-4.971,5.471 -3.977,20.142 -0.246,25.364C-9.695,31.581 0,39.538 0,39.538" style="fill:rgb(255,254,243);fill-rule:nonzero;"/>
        </g>
        <g transform="matrix(1,0,0,1,586.629,450.676)">
            <g>
                <g>
                    <g>
                        <g>
                            <clipPath id="_clip8">
                                <path d="M-15.914,-6.962C-25.364,-0.745 -15.668,7.212 -15.668,7.212C-9.699,7.46 0.994,7.212 0.994,7.212L8.453,-11.189C0,-28.597 -8.953,-32.575 -8.953,-32.575C-20.639,-26.856 -19.644,-12.184 -15.914,-6.962Z"/>
                            </clipPath>
                            <g clip-path="url(#_clip8)">
                                <path d="M0,-31.083C-11.688,-25.612 -11.688,-9.698 -9.449,-5.222C-17.406,-1.243 -11.688,5.968 -9.945,8.455C-8.205,10.942 -20.391,10.693 -20.391,10.693L-23.125,1.244L-26.607,-22.877C-26.607,-22.877 -21.137,-42.025 -19.893,-41.776C-18.65,-41.527 -5.471,-40.284 -5.471,-40.284L0,-31.083Z" style="fill:rgb(255,213,0);fill-rule:nonzero;"/>
                            </g>
                        </g>
                    </g>
                </g>
            </g>
        </g>
        <g transform="matrix(-0.838269,-0.545257,-0.545257,0.838269,581.791,451.219)">
            <path d="M-7.048,-19.039C-3.952,-19.693 -2.692,-18.417 -2.692,-18.417C1.079,-8.25 -7.048,3.848 -7.048,3.848L-11.162,0.992C-6.02,-7.827 -7.048,-19.039 -7.048,-19.039" style="fill:rgb(255,135,194);fill-rule:nonzero;"/>
        </g>
        <g transform="matrix(-0.861717,0.50726,0.50726,0.861717,497.489,422.761)">
            <path d="M-14.25,-26.192C-1.038,-30.219 12.593,-29.025 15.077,-25.293C3.549,-3.213 -14.25,8.707 -14.25,8.707L-16.961,4.027C-19.987,-7.885 -14.25,-26.192 -14.25,-26.192" style="fill:rgb(255,199,229);fill-rule:nonzero;"/>
        </g>
        <g transform="matrix(-0.887083,-0.46161,-0.46161,0.887083,537.831,423.655)">
            <path d="M16.487,-26.553C3.084,-29.884 -12.29,-28.353 -14.576,-24.497C-1.911,-3.049 16.487,7.926 16.487,7.926L19.236,4.159C21.636,-7.895 16.487,-26.553 16.487,-26.553" style="fill:rgb(255,199,229);fill-rule:nonzero;"/>
        </g>
        <g transform="matrix(0.552069,0.83372,0.83372,-0.552069,511.969,377.808)">
            <path d="M2.23,-17.677L8.195,-17.677C21.077,-14.615 26.127,3.275 23.942,7.455C22.821,9.596 21.215,11.894 21.215,11.894L2.23,-17.677Z" style="fill:rgb(255,199,229);fill-rule:nonzero;"/>
        </g>
        <g transform="matrix(1,0,0,1,581.241,395.194)">
            <path d="M0,-148.861L-64.447,-139.397L-128.896,-148.861C-165.564,-90.194 -134.23,-40.194 -134.23,-40.194C-142.383,-22.635 -114.549,-0.948 -76.811,-0.657C-66.152,0 -56.373,-0.102 -47.988,-0.771C-12.361,-2.525 13.189,-23.277 5.334,-40.194C5.334,-40.194 36.668,-90.194 0,-148.861" style="fill:rgb(255,254,243);fill-rule:nonzero;"/>
            <g transform="matrix(3.81178,0,0,3.81178,-428.837,-408.669)">
                <circle cx="115.062" cy="95.734" r="2.112" style="fill:rgb(255,254,243);"/>
            </g>
            <g transform="matrix(3.81178,0,0,3.81178,-577.241,-408.731)">
                <circle cx="115.062" cy="95.734" r="2.112" style="fill:rgb(255,254,243);"/>
            </g>
        </g>
        <g transform="matrix(1,0,0,1,439.875,192.001)">
            <path d="M0,117.333C44,80.666 134.666,102.666 148.666,115.333C162.666,128 150.666,40.666 150.666,40.666L129.334,7.333L69.334,-10.667L36.666,4.666L6,36L0,117.333Z" style="fill:rgb(255,253,120);fill-rule:nonzero;"/>
        </g>
        <g transform="matrix(1,0,0,1,443.815,218.667)">
            <path d="M0,32C20.666,-6 108,-0.667 133.334,24C158.666,48.667 134.666,5.333 134.666,5.333L113.334,-16.667L66,-10.667L25.334,-13.333C25.334,-13.333 -5.332,2.667 0,32" style="fill:rgb(255,135,194);fill-rule:nonzero;"/>
        </g>
        <g transform="matrix(-6.9e-06,-158.784,-158.784,6.9e-06,548.99,374)">
            <path d="M0.949,-0.092C0.563,-0.378 -0.08,-0.214 -0.168,-0.147C-0.126,-0.269 -0.034,-0.319 -0.034,-0.319C-0.139,-0.395 -0.134,-0.508 -0.134,-0.508C0.155,-0.445 0.361,-0.483 0.626,-0.458C0.89,-0.432 1.239,-0.269 1.251,0.038C1.251,0.044 1.252,0.05 1.252,0.055C1.252,0.327 0.949,-0.092 0.949,-0.092Z" style="fill:url(#_Linear9);fill-rule:nonzero;"/>
        </g>
        <g transform="matrix(-6.9e-06,-158.784,-158.784,6.9e-06,483.167,374)">
            <path d="M1.251,-0.039C1.239,0.267 0.89,0.431 0.626,0.456C0.361,0.482 0.155,0.444 -0.134,0.507C-0.134,0.507 -0.139,0.393 -0.034,0.318C-0.034,0.318 -0.126,0.267 -0.168,0.146C-0.08,0.213 0.588,0.382 0.974,0.097C0.974,0.097 1.252,-0.327 1.252,-0.058C1.252,-0.052 1.251,-0.046 1.251,-0.039Z" style="fill:url(#_Linear10);fill-rule:nonzero;"/>
        </g>
        <g transform="matrix(0.999994,-0.00349756,-0.00349756,-0.999994,471.367,361.036)">
            <path d="M-0.084,0.001C11.62,-0.74 14.485,14.567 14.003,24.891C13.534,34.988 9.776,48.377 -0.084,48.606C-10.181,48.842 -13.939,32.64 -13.939,23.717C-13.939,18.736 -13.226,0.833 -0.084,0.001" style="fill:rgb(24,0,86);fill-rule:nonzero;"/>
        </g>
        <g transform="matrix(0.999994,-0.00349756,-0.00349756,-0.999994,471.367,365.263)">
            <path d="M-0.084,0.001C11.62,-0.74 14.485,14.567 14.003,24.891C13.534,34.988 9.776,48.377 -0.084,48.606C-10.181,48.842 -13.939,32.64 -13.939,23.717C-13.939,18.736 -13.226,0.833 -0.084,0.001" style="fill:url(#_Linear11);fill-rule:nonzero;"/>
        </g>
        <g transform="matrix(1,0,0,1,479.203,339.895)">
            <path d="M0,-3.654C-0.143,-4.093 -0.521,-4.413 -0.979,-4.479L-4.703,-5.021L-6.369,-8.396C-6.574,-8.809 -6.996,-9.071 -7.457,-9.071C-7.918,-9.071 -8.34,-8.809 -8.543,-8.396L-10.209,-5.021L-13.934,-4.479C-14.391,-4.413 -14.77,-4.093 -14.912,-3.654C-15.055,-3.215 -14.938,-2.733 -14.605,-2.411L-11.91,0.216L-12.547,3.926C-12.625,4.38 -12.438,4.84 -12.064,5.111C-11.693,5.382 -11.197,5.417 -10.787,5.203L-7.457,3.452L-4.125,5.203C-3.947,5.296 -3.754,5.343 -3.561,5.343C-3.311,5.343 -3.059,5.264 -2.848,5.111C-2.475,4.84 -2.289,4.38 -2.365,3.926L-3.002,0.216L-0.307,-2.411C0.023,-2.733 0.143,-3.215 0,-3.654" style="fill:rgb(255,241,25);fill-rule:nonzero;"/>
        </g>
        <g transform="matrix(1,0,0,1,462.297,323.42)">
            <path d="M0,-3.804C-6.277,-3.043 -12.744,-7.228 -12.744,-7.228C-10.271,3.234 -3.424,3.424 -3.424,3.424L0,-3.804Z" style="fill:rgb(24,0,86);fill-rule:nonzero;"/>
        </g>
        <g transform="matrix(0.999994,-0.00353871,-0.00353871,-0.999994,559.975,361.036)">
            <path d="M-0.085,0.001C11.619,-0.74 14.485,14.567 14.003,24.89C13.535,34.987 9.777,48.377 -0.085,48.606C-10.182,48.842 -13.939,32.64 -13.939,23.717C-13.939,18.736 -13.228,0.834 -0.085,0.001" style="fill:rgb(24,0,86);fill-rule:nonzero;"/>
        </g>
        <g transform="matrix(0.999994,-0.00353871,-0.00353871,-0.999994,559.975,365.263)">
            <path d="M-0.085,0.001C11.619,-0.74 14.485,14.567 14.003,24.89C13.535,34.987 9.777,48.377 -0.085,48.606C-10.182,48.842 -13.939,32.64 -13.939,23.717C-13.939,18.736 -13.228,0.834 -0.085,0.001" style="fill:url(#_Linear12);fill-rule:nonzero;"/>
        </g>
        <g transform="matrix(1,0,0,1,567.81,339.895)">
            <path d="M0,-3.654C-0.145,-4.093 -0.523,-4.413 -0.979,-4.479L-4.705,-5.021L-6.369,-8.396C-6.574,-8.809 -6.996,-9.071 -7.457,-9.071C-7.918,-9.071 -8.34,-8.809 -8.545,-8.396L-10.211,-5.021L-13.936,-4.479C-14.391,-4.413 -14.771,-4.093 -14.914,-3.654C-15.057,-3.215 -14.938,-2.733 -14.607,-2.411L-11.912,0.216L-12.547,3.926C-12.625,4.38 -12.439,4.84 -12.066,5.111C-11.693,5.382 -11.197,5.417 -10.789,5.203L-7.457,3.452L-4.125,5.203C-3.947,5.296 -3.754,5.343 -3.561,5.343C-3.311,5.343 -3.061,5.264 -2.85,5.111C-2.475,4.84 -2.289,4.38 -2.367,3.926L-3.004,0.216L-0.309,-2.411C0.023,-2.733 0.143,-3.215 0,-3.654" style="fill:rgb(255,241,25);fill-rule:nonzero;"/>
        </g>
        <g transform="matrix(1,0,0,1,568.783,323.42)">
            <path d="M0,-3.804C6.277,-3.043 12.744,-7.228 12.744,-7.228C10.271,3.234 3.424,3.424 3.424,3.424L0,-3.804Z" style="fill:rgb(24,0,86);fill-rule:nonzero;"/>
        </g>
        <g transform="matrix(1,0,0,1,514.743,349.055)">
            <path d="M0,4.945C-2.959,4.138 -3.232,0.19 -0.76,-0.191C1.713,-0.571 1.713,0.95 1.332,1.902C0.951,2.853 2.092,5.516 0,4.945" style="fill:rgb(158,128,155);fill-rule:nonzero;"/>
        </g>
        <g transform="matrix(1,0,0,1,547.648,171)">
            <path d="M0,47C-6,61 -28.5,54 -26.5,38.5C-24.5,23 -13.5,26 0,22C13.5,18 34.5,2 41,-6C47.5,-14 47,15 35,20.5C50,26.5 26,41.5 20,39C28.5,51.5 7,52.5 0,47" style="fill:rgb(255,254,242);fill-rule:nonzero;"/>
        </g>
        <g transform="matrix(1,0,0,1,547.648,200.5)">
            <path d="M0,17.5C4.5,0.5 -14,0 -16,5.5C-18,11 -13.08,17.386 -9.5,15C-5,12 -8.5,9.5 -8.5,9.5" style="fill:rgb(255,254,242);fill-rule:nonzero;"/>
        </g>
        <g transform="matrix(1,0,0,1,547.648,201.337)">
            <path d="M0,16.663C0,16.663 0.015,16.466 0.043,16.097C0.067,15.73 0.143,15.182 0.151,14.507C0.192,13.835 0.172,13.016 0.12,12.096C0.031,11.18 -0.111,10.159 -0.438,9.125C-0.777,8.096 -1.298,7.065 -2.035,6.155C-2.775,5.242 -3.77,4.495 -4.92,3.952C-5.486,3.663 -6.119,3.48 -6.754,3.307C-7.403,3.179 -8.063,3.058 -8.74,3.025C-10.08,2.94 -11.49,3.116 -12.663,3.598C-13.247,3.829 -13.773,4.135 -14.131,4.487C-14.312,4.662 -14.451,4.843 -14.538,5.02L-14.611,5.152L-14.615,5.16C-14.646,5.252 -14.58,5.043 -14.589,5.072L-14.6,5.107L-14.62,5.176L-14.662,5.315L-14.83,5.868C-15.119,6.988 -15.145,8.328 -14.789,9.527C-14.446,10.724 -13.863,11.841 -13.1,12.641C-12.334,13.457 -11.431,13.849 -10.627,13.726C-10.203,13.658 -9.873,13.488 -9.374,13.169C-8.933,12.889 -8.621,12.66 -8.318,12.346C-7.723,11.756 -7.495,11.078 -7.578,10.469C-7.65,9.86 -7.943,9.39 -8.146,9.099C-8.357,8.804 -8.5,8.663 -8.5,8.663C-8.5,8.663 -8.318,8.746 -8.021,8.979C-7.743,9.221 -7.273,9.588 -7,10.316C-6.852,10.673 -6.797,11.121 -6.844,11.61C-6.912,12.089 -7.107,12.592 -7.404,13.041C-7.676,13.487 -8.11,13.958 -8.51,14.332C-8.848,14.663 -9.463,15.157 -10.174,15.388C-10.358,15.439 -10.545,15.491 -10.734,15.543C-10.926,15.583 -11.123,15.572 -11.324,15.583C-11.735,15.623 -12.114,15.519 -12.517,15.439C-13.285,15.217 -13.995,14.813 -14.6,14.305C-15.818,13.29 -16.759,11.913 -17.309,10.322C-17.859,8.739 -18.082,6.94 -17.629,5.07L-17.48,4.512L-17.443,4.372L-17.424,4.302L-17.415,4.267L-17.375,4.145L-17.363,4.121L-17.189,3.727C-16.953,3.203 -16.607,2.757 -16.236,2.387C-15.488,1.64 -14.629,1.16 -13.767,0.81C-12.025,0.152 -10.243,0 -8.525,0.139C-6.803,0.271 -5.151,0.808 -3.703,1.615C-2.238,2.399 -1.044,3.572 -0.228,4.848C0.611,6.118 1.036,7.495 1.232,8.742C1.441,9.996 1.365,11.141 1.262,12.124C1.139,13.107 0.939,13.941 0.734,14.616C0.568,15.299 0.328,15.783 0.209,16.135C0.072,16.479 0,16.663 0,16.663" style="fill:rgb(255,206,234);fill-rule:nonzero;"/>
        </g>
        <g transform="matrix(1,0,0,1,483.178,171)">
            <path d="M0,47C6,61 28.5,54 26.5,38.5C24.5,23 13.5,26 0,22C-13.5,18 -34.5,2 -41,-6C-47.5,-14 -47,15 -35,20.5C-50,26.5 -26,41.5 -20,39C-28.5,51.5 -7,52.5 0,47" style="fill:rgb(255,254,242);fill-rule:nonzero;"/>
        </g>
        <g transform="matrix(1,0,0,1,483.178,200.5)">
            <path d="M0,17.5C-4.5,0.5 14,0 16,5.5C18,11 13.078,17.386 9.5,15C5,12 8.5,9.5 8.5,9.5" style="fill:rgb(255,254,242);fill-rule:nonzero;"/>
        </g>
        <g transform="matrix(1,0,0,1,483.178,201.337)">
            <path d="M0,16.663C0,16.663 -0.073,16.479 -0.209,16.135C-0.329,15.783 -0.569,15.299 -0.735,14.616C-0.94,13.941 -1.139,13.107 -1.262,12.124C-1.365,11.141 -1.442,9.996 -1.233,8.742C-1.037,7.495 -0.612,6.118 0.227,4.848C1.044,3.572 2.238,2.399 3.703,1.615C5.151,0.808 6.803,0.271 8.525,0.139C10.243,0 12.025,0.152 13.767,0.81C14.628,1.16 15.488,1.64 16.236,2.387C16.607,2.757 16.953,3.203 17.189,3.726L17.364,4.12L17.374,4.145L17.415,4.267L17.424,4.302L17.443,4.371L17.48,4.512L17.629,5.07C18.083,6.939 17.86,8.739 17.309,10.322C16.759,11.912 15.817,13.289 14.599,14.304C13.995,14.812 13.285,15.216 12.517,15.439C12.114,15.518 11.735,15.623 11.324,15.583C11.124,15.572 10.926,15.583 10.735,15.543C10.545,15.491 10.358,15.439 10.173,15.388C9.462,15.157 8.848,14.663 8.509,14.332C8.11,13.958 7.676,13.487 7.404,13.041C7.108,12.592 6.912,12.089 6.844,11.61C6.797,11.121 6.852,10.673 7,10.316C7.274,9.588 7.743,9.221 8.021,8.979C8.319,8.746 8.5,8.663 8.5,8.663C8.5,8.663 8.357,8.804 8.146,9.099C7.944,9.39 7.651,9.86 7.578,10.469C7.495,11.077 7.723,11.756 8.318,12.346C8.621,12.66 8.933,12.889 9.374,13.169C9.874,13.488 10.204,13.658 10.626,13.726C11.43,13.849 12.333,13.457 13.1,12.641C13.862,11.84 14.446,10.723 14.79,9.527C15.144,8.327 15.119,6.988 14.83,5.868L14.662,5.314L14.62,5.176L14.599,5.106L14.589,5.072C14.58,5.043 14.646,5.252 14.616,5.16L14.611,5.152L14.538,5.02C14.451,4.842 14.312,4.662 14.131,4.487C13.774,4.135 13.247,3.829 12.663,3.598C11.489,3.116 10.081,2.94 8.74,3.025C8.063,3.058 7.403,3.18 6.753,3.307C6.119,3.48 5.486,3.663 4.919,3.952C3.769,4.495 2.775,5.243 2.035,6.155C1.298,7.065 0.777,8.096 0.438,9.125C0.111,10.159 -0.031,11.18 -0.12,12.096C-0.171,13.016 -0.192,13.835 -0.151,14.507C-0.142,15.182 -0.067,15.73 -0.042,16.097C-0.015,16.466 0,16.663 0,16.663" style="fill:rgb(255,206,234);fill-rule:nonzero;"/>
        </g>
        <g transform="matrix(1,0,0,1,538.104,214.029)">
            <path d="M0,-10.495C-0.412,-11.753 -1.5,-12.672 -2.811,-12.863L-13.506,-14.417L-18.289,-24.108C-18.877,-25.297 -20.086,-26.048 -21.41,-26.048C-22.736,-26.048 -23.945,-25.297 -24.533,-24.108L-29.314,-14.417L-40.01,-12.863C-41.32,-12.672 -42.41,-11.753 -42.82,-10.495C-43.229,-9.235 -42.889,-7.85 -41.939,-6.925L-34.201,0.619L-36.027,11.268C-36.252,12.574 -35.715,13.892 -34.643,14.672C-33.574,15.452 -32.148,15.553 -30.975,14.937L-21.41,9.91L-11.846,14.937C-11.334,15.204 -10.779,15.34 -10.225,15.34C-9.504,15.34 -8.785,15.114 -8.178,14.672C-7.105,13.892 -6.57,12.574 -6.793,11.268L-8.623,0.619L-0.883,-6.924C0.066,-7.85 0.408,-9.235 0,-10.495" style="fill:rgb(255,213,0);fill-rule:nonzero;"/>
        </g>
        <g transform="matrix(0.618671,0.78565,0.78565,-0.618671,495.507,518.525)">
            <path d="M0.403,-3.479L5.703,-3.479L5.483,2.156L1.866,0.828L0.403,-3.479Z" style="fill:rgb(255,254,243);fill-rule:nonzero;"/>
        </g>
        <g transform="matrix(0.635714,0.771925,0.771925,-0.635714,536.156,517.981)">
            <path d="M0.448,-3.6L6.006,-3.6L5.875,2.393L1.189,-0.121L0.448,-3.6Z" style="fill:rgb(255,254,243);fill-rule:nonzero;"/>
        </g>
        <g transform="matrix(1,0,0,1,537.49,520)">
            <path d="M0,-1.5C0,-1.5 -8.5,-6.5 -8.5,-4.75C-8.5,-3 -8.5,4 -6.75,3.5C-5,3 -0.5,0 -0.5,0C-0.5,0 6.75,5 7.25,3.25C7.75,1.5 8.25,-6 6.5,-5.25C4.75,-4.5 0,-1.5 0,-1.5" style="fill:rgb(237,10,59);fill-rule:nonzero;"/>
        </g>
        <g transform="matrix(1,0,0,1,496.146,520)">
            <path d="M0,-1.5C0,-1.5 8.5,-6.5 8.5,-4.75C8.5,-3 8.5,4 6.75,3.5C5,3 0.5,0 0.5,0C0.5,0 -6.75,5 -7.25,3.25C-7.75,1.5 -8.25,-6 -6.5,-5.25C-4.75,-4.5 0,-1.5 0,-1.5" style="fill:rgb(237,10,59);fill-rule:nonzero;"/>
        </g>
        <g transform="matrix(-0.977458,-0.21113,-0.21113,0.977458,490.936,525.531)">
            <path d="M-3.107,-6.67C-1.544,-5.374 0.195,-0.798 0.195,-0.798L-3.107,-0.186L-3.801,-6.525L-3.107,-6.67Z" style="fill:rgb(237,10,59);fill-rule:nonzero;"/>
        </g>
        <g transform="matrix(-0.977458,0.21113,0.21113,0.977458,502.056,525.531)">
            <path d="M3.107,-6.67C1.544,-5.374 -0.195,-0.798 -0.195,-0.798L3.107,-0.186L3.801,-6.525L3.107,-6.67Z" style="fill:rgb(237,10,59);fill-rule:nonzero;"/>
        </g>
        <g transform="matrix(-0.977522,0.210835,0.210835,0.977522,542.823,525.682)">
            <path d="M3.106,-6.669C1.543,-5.373 -0.196,-0.799 -0.196,-0.799L3.106,-0.185L3.8,-6.524L3.106,-6.669Z" style="fill:rgb(237,10,59);fill-rule:nonzero;"/>
        </g>
        <g transform="matrix(-0.977522,-0.210835,-0.210835,0.977522,531.706,525.682)">
            <path d="M-3.106,-6.669C-1.543,-5.373 0.196,-0.799 0.196,-0.799L-3.106,-0.185L-3.8,-6.524L-3.106,-6.669Z" style="fill:rgb(237,10,59);fill-rule:nonzero;"/>
        </g>
        <g transform="matrix(1,0,0,1,482.789,507.686)">
            <path d="M0,-53.527C-24.867,-34.38 -28.1,-0.063 -28.1,-0.063C-28.1,-0.063 -13.479,0.249 1.359,-6.686C24.236,-17.38 26.607,-39.601 27.105,-40.596C27.604,-41.591 29.84,-53.776 29.84,-53.776L0,-53.527Z" style="fill:rgb(255,254,243);fill-rule:nonzero;"/>
        </g>
        <g transform="matrix(1,0,0,1,552.914,507.623)">
            <path d="M0,-53.464C24.867,-34.317 28.1,0 28.1,0C28.1,0 12.682,-1.988 -1.492,-10.195C-15.666,-18.402 -33.072,-34.814 -33.57,-35.809C-34.068,-36.804 -39.041,-51.227 -39.041,-51.227L0,-53.464Z" style="fill:rgb(255,254,243);fill-rule:nonzero;"/>
        </g>
        <g transform="matrix(-0.772423,-0.635108,-0.635108,0.772423,436.633,484.539)">
            <path d="M-28.608,-95.047C-54.445,-68.322 -68.188,-28.113 -31.753,12.146L-28.608,6.362C-53.753,-21.396 -56.13,-58.441 -24.889,-91.346L-28.608,-95.047Z" style="fill:rgb(255,135,194);fill-rule:nonzero;"/>
        </g>
        <g transform="matrix(-0.522108,0.852879,0.852879,0.522108,585.456,469.066)">
            <path d="M31.988,-63.183C52.166,-44.706 50.265,6.028 36.251,18.443L31.988,13.499C50.623,-15.036 38.498,-51.908 25.825,-65.497L31.988,-63.183Z" style="fill:rgb(255,135,194);fill-rule:nonzero;"/>
        </g>
        <g transform="matrix(1,0,0,1,502.953,447.703)">
            <path d="M0,7.712C-0.236,7.316 -0.23,6.82 0.02,6.432L2.061,3.269L0.609,-0.205C0.432,-0.632 0.51,-1.121 0.814,-1.469C1.117,-1.817 1.592,-1.962 2.037,-1.845L5.676,-0.884L8.531,-3.337C8.881,-3.638 9.371,-3.713 9.795,-3.532C10.221,-3.352 10.506,-2.946 10.531,-2.484L10.742,1.274L13.957,3.23C14.352,3.47 14.574,3.912 14.533,4.372C14.494,4.831 14.193,5.229 13.764,5.396L10.256,6.758L9.389,10.419C9.342,10.614 9.25,10.791 9.123,10.937C8.957,11.126 8.734,11.265 8.479,11.321C8.029,11.425 7.561,11.265 7.268,10.907L4.891,7.991L1.139,8.298C0.68,8.334 0.236,8.107 0,7.712" style="fill:rgb(255,213,0);fill-rule:nonzero;"/>
        </g>
        <g transform="matrix(1,0,0,1,515.863,447.12)">
            <path d="M0,-21.635C-0.746,-2.487 -9.449,8.455 -9.449,8.455L-17.904,-1.243L-29.344,-1.492C-29.344,-1.492 -22.629,-14.672 -14.174,-22.381C-5.721,-30.09 0,-21.635 0,-21.635" style="fill:rgb(255,90,171);fill-rule:nonzero;"/>
        </g>
        <g transform="matrix(1,0,0,1,518.35,447.12)">
            <path d="M0,-21.635C0.746,-2.487 9.449,8.455 9.449,8.455L17.904,-1.243L29.342,-1.492C29.342,-1.492 22.629,-14.672 14.174,-22.381C5.719,-30.09 0,-21.635 0,-21.635" style="fill:rgb(255,90,171);fill-rule:nonzero;"/>
        </g>
        <g transform="matrix(1,0,0,1,514.748,427.604)">
            <path d="M0,-9.002C-8,-20.335 -21.666,-23.334 -30.334,-21.668C-37,-11.335 -30,-4.335 -30,-4.335C-33.334,2.998 -30.666,13.664 -27.334,13.998C-24,14.332 -8.334,8.666 -1.666,-0.668C5,-10.002 0,-9.002 0,-9.002" style="fill:rgb(255,135,194);fill-rule:nonzero;"/>
        </g>
        <g transform="matrix(1,0,0,1,520.002,427.604)">
            <path d="M0,-9.002C8,-20.335 21.668,-23.334 30.334,-21.668C37,-11.335 30,-4.335 30,-4.335C33.334,2.998 30.668,13.664 27.334,13.998C24,14.332 8.334,8.666 1.668,-0.668C-5,-10.002 0,-9.002 0,-9.002" style="fill:rgb(255,135,194);fill-rule:nonzero;"/>
        </g>
        <g transform="matrix(1,0,0,1,511.449,430.119)">
            <path d="M0,-7.778C-10.803,-12.964 -16.973,-11.771 -15.988,-5.617C-14.26,5.186 -5.186,-1.297 -1.297,-3.457C2.594,-5.617 0,-7.778 0,-7.778" style="fill:rgb(255,90,171);fill-rule:nonzero;"/>
        </g>
        <g transform="matrix(1,0,0,1,523.682,430.119)">
            <path d="M0,-7.778C10.803,-12.964 16.973,-11.771 15.988,-5.617C14.26,5.186 5.186,-1.297 1.297,-3.457C-2.594,-5.617 0,-7.778 0,-7.778" style="fill:rgb(255,90,171);fill-rule:nonzero;"/>
        </g>
        <g transform="matrix(1,0,0,1,529.971,425.315)">
            <path d="M0,-6.491C-0.254,-7.269 -0.928,-7.838 -1.738,-7.956L-8.354,-8.917L-11.313,-14.911C-11.676,-15.646 -12.424,-16.111 -13.242,-16.111C-14.063,-16.111 -14.811,-15.646 -15.174,-14.911L-18.133,-8.917L-24.746,-7.956C-25.559,-7.838 -26.232,-7.269 -26.484,-6.491C-26.738,-5.712 -26.527,-4.855 -25.939,-4.283L-21.154,0.383L-22.283,6.97C-22.422,7.778 -22.09,8.593 -21.428,9.075C-20.766,9.558 -19.885,9.62 -19.158,9.239L-13.242,6.13L-7.326,9.239C-7.01,9.405 -6.668,9.488 -6.324,9.488C-5.877,9.488 -5.434,9.349 -5.059,9.075C-4.395,8.593 -4.064,7.778 -4.201,6.97L-5.332,0.383L-0.545,-4.282C0.041,-4.855 0.254,-5.712 0,-6.491" style="fill:rgb(255,213,0);fill-rule:nonzero;"/>
        </g>
        <g transform="matrix(1,0,0,1,2.05964,0)">
            <g>
                <g>
                    <g>
                        <g>
                            <clipPath id="_clip13">
                                <path d="M474.481,196.667L443.814,227.999L437.814,309.333C481.814,272.666 572.48,294.666 586.48,307.333C600.481,320 588.48,232.667 588.48,232.667L567.148,199.333L507.148,181.333L474.481,196.667Z"/>
                            </clipPath>
                            <g clip-path="url(#_clip13)">
                                <g transform="matrix(1,0,0,1,492.867,296.158)">
                                    <path d="M0,-59.634C-15.988,-31.113 -12.531,1.729 -12.531,1.729L-0.863,0.432C-6.48,-28.953 0.434,-61.363 0.434,-61.363" style="fill:rgb(255,197,173);fill-rule:nonzero;"/>
                                </g>
                                <g transform="matrix(1,0,0,1,470.396,311.716)">
                                    <path d="M0,-59.634C-15.988,-31.113 -12.531,1.729 -12.531,1.729L-0.863,0.432C-6.48,-28.953 0.434,-61.363 0.434,-61.363" style="fill:rgb(255,197,173);fill-rule:nonzero;"/>
                                </g>
                                <g transform="matrix(1,0,0,1,536.631,296.158)">
                                    <path d="M0,-59.634C15.988,-31.113 12.531,1.729 12.531,1.729L0.863,0.432C6.48,-28.953 -0.434,-61.363 -0.434,-61.363" style="fill:rgb(255,197,173);fill-rule:nonzero;"/>
                                </g>
                                <g transform="matrix(1,0,0,1,559.102,311.716)">
                                    <path d="M0,-59.634C15.988,-31.113 12.531,1.729 12.531,1.729L0.863,0.432C6.48,-28.953 -0.434,-61.363 -0.434,-61.363" style="fill:rgb(255,197,173);fill-rule:nonzero;"/>
                                </g>
                            </g>
                        </g>
                    </g>
                </g>
            </g>
        </g>
        <g transform="matrix(1,0,0,1,579.368,426.981)">
            <g>
                <g>
                    <g>
                        <g>
                            <clipPath id="_clip14">
                                <path d="M-8.653,16.733C-18.103,22.95 -8.407,30.907 -8.407,30.907C-2.438,31.155 8.255,30.907 8.255,30.907L15.714,12.506C7.261,-4.902 -1.692,-8.88 -1.692,-8.88C-13.378,-3.161 -12.383,11.511 -8.653,16.733Z"/>
                            </clipPath>
                            <g clip-path="url(#_clip14)">
                                <path d="M0,3.136C-0.123,2.693 0.018,2.216 0.361,1.908L3.174,-0.593L2.705,-4.329C2.648,-4.788 2.855,-5.238 3.24,-5.492C3.625,-5.747 4.121,-5.76 4.52,-5.527L7.77,-3.628L11.176,-5.227C11.594,-5.424 12.086,-5.365 12.447,-5.078C12.807,-4.791 12.975,-4.323 12.875,-3.871L12.074,-0.194L14.646,2.551C14.963,2.888 15.061,3.374 14.896,3.806C14.736,4.238 14.342,4.54 13.883,4.586L10.137,4.96L8.322,8.256C8.225,8.432 8.09,8.577 7.928,8.684C7.717,8.822 7.467,8.896 7.205,8.882C6.744,8.863 6.336,8.582 6.148,8.159L4.637,4.714L0.941,4.005C0.488,3.917 0.123,3.58 0,3.136" style="fill:rgb(255,213,0);fill-rule:nonzero;"/>
                            </g>
                        </g>
                    </g>
                </g>
            </g>
        </g>
        <g transform="matrix(1,0,0,1,452.953,426.907)">
            <g>
                <g>
                    <g>
                        <g>
                            <clipPath id="_clip15">
                                <path d="M-15.67,12.58L-8.209,30.981C-8.209,30.981 2.485,31.229 8.451,30.981C8.451,30.981 18.148,23.024 8.699,16.807C12.43,11.585 13.424,-3.087 1.736,-8.806C1.736,-8.806 -7.216,-4.828 -15.67,12.58Z"/>
                            </clipPath>
                            <g clip-path="url(#_clip15)">
                                <path d="M0,3.473C0.137,3.032 0.012,2.553 -0.324,2.235L-3.063,-0.348L-2.484,-4.068C-2.414,-4.525 -2.607,-4.982 -2.986,-5.247C-3.363,-5.512 -3.859,-5.539 -4.264,-5.318L-7.566,-3.515L-10.926,-5.215C-11.338,-5.423 -11.832,-5.379 -12.199,-5.101C-12.57,-4.826 -12.75,-4.363 -12.664,-3.908L-11.971,-0.209L-14.623,2.459C-14.949,2.787 -15.061,3.27 -14.91,3.707C-14.762,4.143 -14.375,4.457 -13.918,4.516L-10.186,5L-8.467,8.348C-8.375,8.526 -8.244,8.676 -8.086,8.786C-7.881,8.931 -7.631,9.012 -7.369,9.006C-6.908,8.998 -6.49,8.731 -6.291,8.315L-4.68,4.914L-0.965,4.315C-0.51,4.24 -0.135,3.912 0,3.473" style="fill:rgb(255,213,0);fill-rule:nonzero;"/>
                            </g>
                        </g>
                    </g>
                </g>
            </g>
        </g>
        <g transform="matrix(1,0,0,1,494.396,544.276)">
            <path d="M0,-2.526C-2.854,-0.385 -5.217,2.323 -6.721,4.255C-11.945,3.408 -15.855,4.46 -17.742,5.172C-18.283,3.285 -18.344,2.12 -18.633,0.225C-18.633,0.225 -15.41,-2.192 -10.038,-1.655C-8.534,-3.588 -3.323,-6.892 0.034,-7.698C0.034,-7.698 6.95,-6.805 10.644,-2.594C14.302,-4.338 15.881,-4.072 17.896,-3.132C17.896,-3.132 17.986,-2.716 16.582,0.8C14.098,0.866 10.73,2.155 7.795,3.554C4.102,-0.657 0,-2.526 0,-2.526" style="fill:rgb(255,213,0);fill-rule:nonzero;"/>
        </g>
        <g transform="matrix(1,0,0,1,487.258,543.44)">
            <path d="M0,23.787C-4.613,20.214 -8.498,13.335 -10.604,6.008C-7.868,4.418 -6.66,3.881 -1.69,3.612C0.593,1.599 3.01,-0.282 7.139,-1.691C7.139,-1.691 12.88,-1.001 16.573,3.21C19.509,1.81 21.006,1.06 23.721,1.636C22.719,4.147 21.139,7.143 18.639,10.059L16.889,16.309C16.889,16.309 17.348,17.794 17.736,19.533C17.992,20.675 18.209,21.919 18.254,22.935C12.6,25.478 4.35,24.696 0,23.787" style="fill:rgb(255,254,243);fill-rule:nonzero;"/>
        </g>
        <g transform="matrix(1,0,0,1,505.146,569.485)">
            <path d="M0,-1.235C-0.088,-1.147 -0.195,-1.055 -0.314,-0.962C-1.9,0.277 -6.293,1.874 -13.5,0.015C-15.012,-0.376 -16.482,-1.169 -17.889,-2.257C-13.539,-1.348 -5.289,-0.566 0.365,-3.109C0.4,-2.249 0.314,-1.548 0,-1.235" style="fill:rgb(255,213,0);fill-rule:nonzero;"/>
        </g>
        <g transform="matrix(1,0,0,1,489.343,547.829)">
            <path d="M0,-2.71C0.107,-3.035 0.387,-3.273 0.727,-3.322L3.49,-3.724L4.725,-6.228C4.877,-6.534 5.189,-6.729 5.531,-6.729C5.875,-6.729 6.187,-6.534 6.338,-6.228L7.574,-3.724L10.336,-3.322C10.676,-3.273 10.957,-3.035 11.063,-2.71C11.168,-2.385 11.08,-2.027 10.834,-1.788L8.836,0.16L9.309,2.912C9.365,3.249 9.227,3.59 8.949,3.791C8.674,3.992 8.307,4.019 8.002,3.86L5.531,2.561L3.061,3.86C2.93,3.929 2.785,3.964 2.643,3.964C2.455,3.964 2.27,3.905 2.113,3.791C1.836,3.59 1.697,3.249 1.756,2.912L2.229,0.16L0.229,-1.788C-0.018,-2.027 -0.105,-2.385 0,-2.71" style="fill:rgb(255,213,0);fill-rule:nonzero;"/>
        </g>
        <g transform="matrix(1,0,0,1,539.19,544.276)">
            <path d="M0,-2.526C2.854,-0.385 5.217,2.323 6.721,4.255C11.945,3.408 15.855,4.46 17.742,5.172C18.283,3.285 18.344,2.12 18.633,0.225C18.633,0.225 15.41,-2.192 10.038,-1.655C8.534,-3.588 3.323,-6.892 -0.034,-7.698C-0.034,-7.698 -6.95,-6.805 -10.644,-2.594C-14.302,-4.338 -15.881,-4.072 -17.896,-3.132C-17.896,-3.132 -17.986,-2.716 -16.582,0.8C-14.098,0.866 -10.73,2.155 -7.795,3.554C-4.102,-0.657 0,-2.526 0,-2.526" style="fill:rgb(255,213,0);fill-rule:nonzero;"/>
        </g>
        <g transform="matrix(1,0,0,1,546.328,543.44)">
            <path d="M0,23.787C4.613,20.214 8.498,13.335 10.604,6.008C7.868,4.418 6.66,3.881 1.69,3.612C-0.593,1.599 -3.01,-0.282 -7.139,-1.691C-7.139,-1.691 -12.88,-1.001 -16.573,3.21C-19.509,1.81 -21.006,1.06 -23.721,1.636C-22.719,4.147 -21.139,7.143 -18.639,10.059L-16.889,16.309C-16.889,16.309 -17.348,17.794 -17.736,19.533C-17.992,20.675 -18.209,21.919 -18.254,22.935C-12.6,25.478 -4.35,24.696 0,23.787" style="fill:rgb(255,254,243);fill-rule:nonzero;"/>
        </g>
        <g transform="matrix(1,0,0,1,528.44,569.485)">
            <path d="M0,-1.235C0.088,-1.147 0.195,-1.055 0.314,-0.962C1.9,0.277 6.293,1.874 13.5,0.015C15.012,-0.376 16.482,-1.169 17.889,-2.257C13.539,-1.348 5.289,-0.566 -0.365,-3.109C-0.4,-2.249 -0.314,-1.548 0,-1.235" style="fill:rgb(255,213,0);fill-rule:nonzero;"/>
        </g>
        <g transform="matrix(1,0,0,1,544.243,547.829)">
            <path d="M0,-2.71C-0.107,-3.035 -0.387,-3.273 -0.727,-3.322L-3.49,-3.724L-4.725,-6.228C-4.877,-6.534 -5.189,-6.729 -5.531,-6.729C-5.875,-6.729 -6.187,-6.534 -6.338,-6.228L-7.574,-3.724L-10.336,-3.322C-10.676,-3.273 -10.957,-3.035 -11.063,-2.71C-11.168,-2.385 -11.08,-2.027 -10.834,-1.788L-8.836,0.16L-9.309,2.912C-9.365,3.249 -9.227,3.59 -8.949,3.791C-8.674,3.992 -8.307,4.019 -8.002,3.86L-5.531,2.561L-3.061,3.86C-2.93,3.929 -2.785,3.964 -2.643,3.964C-2.455,3.964 -2.27,3.905 -2.113,3.791C-1.836,3.59 -1.697,3.249 -1.756,2.912L-2.229,0.16L-0.229,-1.788C0.018,-2.027 0.105,-2.385 0,-2.71" style="fill:rgb(255,213,0);fill-rule:nonzero;"/>
        </g>
        <g transform="matrix(1,0,0,1,497.431,386.937)">
            <path d="M0,-17.01C10.216,-20.336 29.389,-20.573 36.99,-17.723C31,-0.437 7.496,3.563 0,-17.01" style="fill:rgb(255,162,199);fill-rule:nonzero;"/>
        </g>
    </g>
    <defs>
        <linearGradient id="_Linear1" x1="0" y1="0" x2="1" y2="0" gradientUnits="userSpaceOnUse" gradientTransform="matrix(2.35694e-14,384.917,-384.917,2.35694e-14,0,-175.016)"><stop offset="0" style="stop-color:rgb(255,253,120);stop-opacity:1"/><stop offset="0.58" style="stop-color:rgb(255,240,140);stop-opacity:1"/><stop offset="0.8" style="stop-color:rgb(255,213,183);stop-opacity:1"/><stop offset="1" style="stop-color:rgb(255,187,225);stop-opacity:1"/></linearGradient>
        <linearGradient id="_Linear3" x1="0" y1="0" x2="1" y2="0" gradientUnits="userSpaceOnUse" gradientTransform="matrix(43.5113,0,0,43.5113,-2.076,-24.8552)"><stop offset="0" style="stop-color:rgb(255,253,120);stop-opacity:1"/><stop offset="1" style="stop-color:rgb(255,253,120);stop-opacity:1"/></linearGradient>
        <linearGradient id="_Linear4" x1="0" y1="0" x2="1" y2="0" gradientUnits="userSpaceOnUse" gradientTransform="matrix(43.5109,0,0,43.5109,-41.4349,-24.8552)"><stop offset="0" style="stop-color:rgb(255,253,120);stop-opacity:1"/><stop offset="1" style="stop-color:rgb(255,253,120);stop-opacity:1"/></linearGradient>
        <linearGradient id="_Linear9" x1="0" y1="0" x2="1" y2="0" gradientUnits="userSpaceOnUse" gradientTransform="matrix(1,0,0,1,0,-0.180481)"><stop offset="0" style="stop-color:rgb(255,253,120);stop-opacity:1"/><stop offset="1" style="stop-color:rgb(255,253,120);stop-opacity:1"/></linearGradient>
        <linearGradient id="_Linear10" x1="0" y1="0" x2="1" y2="0" gradientUnits="userSpaceOnUse" gradientTransform="matrix(1,0,0,1,0,0.179777)"><stop offset="0" style="stop-color:rgb(255,253,120);stop-opacity:1"/><stop offset="1" style="stop-color:rgb(255,253,120);stop-opacity:1"/></linearGradient>
        <linearGradient id="_Linear11" x1="0" y1="0" x2="1" y2="0" gradientUnits="userSpaceOnUse" gradientTransform="matrix(0.170085,48.6294,-48.6294,0.170085,0.999909,-0.0259392)"><stop offset="0" style="stop-color:rgb(0,231,255);stop-opacity:1"/><stop offset="1" style="stop-color:rgb(0,231,255);stop-opacity:1"/></linearGradient>
        <linearGradient id="_Linear12" x1="0" y1="0" x2="1" y2="0" gradientUnits="userSpaceOnUse" gradientTransform="matrix(0.172086,48.6294,-48.6294,0.172086,-7.94149e-05,-0.0224416)"><stop offset="0" style="stop-color:rgb(0,231,255);stop-opacity:1"/><stop offset="1" style="stop-color:rgb(0,231,255);stop-opacity:1"/></linearGradient>
    </defs>
</svg>
