<?xml version="1.0" encoding="UTF-8" standalone="no"?>
<!DOCTYPE svg PUBLIC "-//W3C//DTD SVG 1.1//EN" "http://www.w3.org/Graphics/SVG/1.1/DTD/svg11.dtd">
<svg width="100%" height="100%" viewBox="0 0 16 16" version="1.1" xmlns="http://www.w3.org/2000/svg" xmlns:xlink="http://www.w3.org/1999/xlink" xml:space="preserve" xmlns:serif="http://www.serif.com/" style="fill-rule:evenodd;clip-rule:evenodd;stroke-linejoin:round;stroke-miterlimit:2;">
    <g transform="matrix(0.537853,0,0,0.537853,15.9301,10.0043)">
        <path d="M0,-7.289C-0.311,-8.246 -1.138,-8.943 -2.133,-9.088L-9.21,-10.117L-12.374,-16.529C-12.818,-17.432 -13.736,-18.002 -14.743,-18.002C-15.749,-18.002 -16.668,-17.432 -17.113,-16.529L-20.278,-10.117L-27.354,-9.088C-28.35,-8.943 -29.177,-8.246 -29.489,-7.289C-29.799,-6.333 -29.54,-5.283 -28.819,-4.58L-23.699,0.41L-24.907,7.459C-25.077,8.45 -24.67,9.452 -23.856,10.043C-23.042,10.635 -21.963,10.713 -21.073,10.244L-14.743,6.918L-8.415,10.244C-8.028,10.447 -7.606,10.549 -7.186,10.549C-6.638,10.549 -6.092,10.378 -5.632,10.043C-4.818,9.452 -4.41,8.45 -4.58,7.459L-5.789,0.41L-0.668,-4.58C0.052,-5.283 0.312,-6.332 0,-7.289" style="fill-rule:nonzero;"/>
    </g>
</svg>
