<?xml version="1.0" encoding="UTF-8" standalone="no"?>
<!DOCTYPE svg PUBLIC "-//W3C//DTD SVG 1.1//EN" "http://www.w3.org/Graphics/SVG/1.1/DTD/svg11.dtd">
<svg width="100%" height="100%" viewBox="0 0 1024 1024" version="1.1" xmlns="http://www.w3.org/2000/svg" xmlns:xlink="http://www.w3.org/1999/xlink" xml:space="preserve" xmlns:serif="http://www.serif.com/" style="fill-rule:evenodd;clip-rule:evenodd;stroke-linejoin:round;stroke-miterlimit:2;">
    <g>
        <g transform="matrix(6.51318,-0.0227804,-0.0227804,-6.51318,221.693,810.35)">
            <path d="M-0.084,0.001C11.62,-0.74 14.485,14.567 14.003,24.891C13.534,34.988 9.776,48.377 -0.084,48.606C-10.181,48.842 -13.939,32.64 -13.939,23.717C-13.939,18.736 -13.226,0.833 -0.084,0.001" style="fill:rgb(24,0,86);fill-rule:nonzero;"/>
        </g>
        <g transform="matrix(6.51318,-0.0227804,-0.0227804,-6.51318,221.693,837.882)">
            <path d="M-0.084,0.001C11.62,-0.74 14.485,14.567 14.003,24.891C13.534,34.988 9.776,48.377 -0.084,48.606C-10.181,48.842 -13.939,32.64 -13.939,23.717C-13.939,18.736 -13.226,0.833 -0.084,0.001" style="fill:url(#_Linear1);fill-rule:nonzero;"/>
        </g>
        <g transform="matrix(6.51322,0,0,6.51322,272.73,672.654)">
            <path d="M0,-3.654C-0.143,-4.093 -0.521,-4.413 -0.979,-4.479L-4.703,-5.021L-6.369,-8.396C-6.574,-8.809 -6.996,-9.071 -7.457,-9.071C-7.918,-9.071 -8.34,-8.809 -8.543,-8.396L-10.209,-5.021L-13.934,-4.479C-14.391,-4.413 -14.77,-4.093 -14.912,-3.654C-15.055,-3.215 -14.938,-2.733 -14.605,-2.411L-11.91,0.216L-12.547,3.926C-12.625,4.38 -12.438,4.84 -12.064,5.111C-11.693,5.382 -11.197,5.417 -10.787,5.203L-7.457,3.452L-4.125,5.203C-3.947,5.296 -3.754,5.343 -3.561,5.343C-3.311,5.343 -3.059,5.264 -2.848,5.111C-2.475,4.84 -2.289,4.38 -2.365,3.926L-3.002,0.216L-0.307,-2.411C0.023,-2.733 0.143,-3.215 0,-3.654" style="fill:white;fill-rule:nonzero;"/>
        </g>
        <g transform="matrix(6.51322,0,0,6.51322,162.618,565.349)">
            <path d="M0,-3.804C-6.277,-3.043 -12.744,-7.228 -12.744,-7.228C-10.271,3.234 -3.424,3.424 -3.424,3.424L0,-3.804Z" style="fill:rgb(24,0,86);fill-rule:nonzero;"/>
        </g>
        <g transform="matrix(6.51318,-0.0230484,-0.0230484,-6.51318,798.813,810.35)">
            <path d="M-0.085,0.001C11.619,-0.74 14.485,14.567 14.003,24.89C13.535,34.987 9.777,48.377 -0.085,48.606C-10.182,48.842 -13.939,32.64 -13.939,23.717C-13.939,18.736 -13.228,0.834 -0.085,0.001" style="fill:rgb(24,0,86);fill-rule:nonzero;"/>
        </g>
        <g transform="matrix(6.51318,-0.0230484,-0.0230484,-6.51318,798.813,837.882)">
            <path d="M-0.085,0.001C11.619,-0.74 14.485,14.567 14.003,24.89C13.535,34.987 9.777,48.377 -0.085,48.606C-10.182,48.842 -13.939,32.64 -13.939,23.717C-13.939,18.736 -13.228,0.834 -0.085,0.001" style="fill:url(#_Linear2);fill-rule:nonzero;"/>
        </g>
        <g transform="matrix(6.51322,0,0,6.51322,849.844,672.654)">
            <path d="M0,-3.654C-0.145,-4.093 -0.523,-4.413 -0.979,-4.479L-4.705,-5.021L-6.369,-8.396C-6.574,-8.809 -6.996,-9.071 -7.457,-9.071C-7.918,-9.071 -8.34,-8.809 -8.545,-8.396L-10.211,-5.021L-13.936,-4.479C-14.391,-4.413 -14.771,-4.093 -14.914,-3.654C-15.057,-3.215 -14.938,-2.733 -14.607,-2.411L-11.912,0.216L-12.547,3.926C-12.625,4.38 -12.439,4.84 -12.066,5.111C-11.693,5.382 -11.197,5.417 -10.789,5.203L-7.457,3.452L-4.125,5.203C-3.947,5.296 -3.754,5.343 -3.561,5.343C-3.311,5.343 -3.061,5.264 -2.85,5.111C-2.475,4.84 -2.289,4.38 -2.367,3.926L-3.004,0.216L-0.309,-2.411C0.023,-2.733 0.143,-3.215 0,-3.654" style="fill:white;fill-rule:nonzero;"/>
        </g>
        <g transform="matrix(6.51322,0,0,6.51322,856.182,565.349)">
            <path d="M0,-3.804C6.277,-3.043 12.744,-7.228 12.744,-7.228C10.271,3.234 3.424,3.424 3.424,3.424L0,-3.804Z" style="fill:rgb(24,0,86);fill-rule:nonzero;"/>
        </g>
        <g transform="matrix(6.51322,0,0,6.51322,507.276,723.652)">
            <path d="M0,4.945C-2.959,4.138 -3.232,0.19 -0.76,-0.191C1.713,-0.571 1.713,0.95 1.332,1.902C0.951,2.853 2.092,5.516 0,4.945" style="fill:rgb(24,0,86);fill-rule:nonzero;"/>
        </g>
        <g transform="matrix(-6.51321,0,0,6.51321,516.499,958.992)">
            <path d="M0,-16.859C6.72,-16.677 13.629,-15.795 18.5,-14.209C14.845,-4.175 7.382,0 0,-0.347C-7.382,0 -14.845,-4.175 -18.5,-14.209C-13.629,-15.795 -6.72,-16.677 0,-16.859" style="fill:rgb(255,162,199);fill-rule:nonzero;"/>
        </g>
    </g>
    <defs>
        <linearGradient id="_Linear1" x1="0" y1="0" x2="1" y2="0" gradientUnits="userSpaceOnUse" gradientTransform="matrix(0.170085,48.6294,-48.6294,0.170085,0.999909,-0.0259392)"><stop offset="0" style="stop-color:rgb(0,231,255);stop-opacity:1"/><stop offset="1" style="stop-color:rgb(0,231,255);stop-opacity:1"/></linearGradient>
        <linearGradient id="_Linear2" x1="0" y1="0" x2="1" y2="0" gradientUnits="userSpaceOnUse" gradientTransform="matrix(0.172086,48.6294,-48.6294,0.172086,-7.94149e-05,-0.0224416)"><stop offset="0" style="stop-color:rgb(0,231,255);stop-opacity:1"/><stop offset="1" style="stop-color:rgb(0,231,255);stop-opacity:1"/></linearGradient>
    </defs>
</svg>
