<?xml version="1.0" encoding="UTF-8" standalone="no"?>
<!DOCTYPE svg PUBLIC "-//W3C//DTD SVG 1.1//EN" "http://www.w3.org/Graphics/SVG/1.1/DTD/svg11.dtd">
<svg width="100%" height="100%" viewBox="0 0 1024 1024" version="1.1" xmlns="http://www.w3.org/2000/svg" xmlns:xlink="http://www.w3.org/1999/xlink" xml:space="preserve" xmlns:serif="http://www.serif.com/" style="fill-rule:evenodd;clip-rule:evenodd;stroke-linejoin:round;stroke-miterlimit:2;">
    <g transform="matrix(0.843493,0,0,0.843493,-0.0263591,0)">
        <rect x="0.031" y="0" width="1214" height="1214" style="fill:none;"/>
        <g transform="matrix(7.72172,0,0,7.72172,477.792,1116.11)">
            <path d="M0,-11.477C0,-11.477 0.11,-11.347 0.317,-11.105C0.523,-10.867 0.807,-10.482 1.208,-10.064C1.585,-9.627 2.089,-9.14 2.662,-8.584C3.25,-8.046 3.945,-7.485 4.711,-6.905C5.506,-6.358 6.376,-5.795 7.343,-5.294C8.297,-4.771 9.371,-4.361 10.476,-3.969C11.586,-3.581 12.773,-3.317 13.98,-3.1C15.191,-2.892 16.439,-2.809 17.682,-2.809C18.929,-2.787 20.169,-2.936 21.378,-3.129C22.59,-3.326 23.755,-3.654 24.865,-4.034C25.979,-4.41 27.007,-4.901 27.977,-5.396C28.911,-5.946 29.802,-6.482 30.567,-7.069C30.954,-7.358 31.32,-7.643 31.65,-7.939C31.989,-8.225 32.322,-8.491 32.598,-8.778C33.179,-9.326 33.662,-9.836 34.055,-10.269C34.454,-10.697 34.734,-11.064 34.945,-11.303C35.154,-11.544 35.266,-11.673 35.266,-11.673C35.266,-11.673 35.206,-11.514 35.094,-11.216C34.965,-10.927 34.833,-10.465 34.552,-9.938C34.285,-9.401 33.958,-8.741 33.48,-8.044C33.022,-7.335 32.452,-6.555 31.726,-5.794C31.023,-5.006 30.162,-4.242 29.184,-3.51C28.186,-2.817 27.098,-2.096 25.863,-1.568C24.64,-1.026 23.324,-0.548 21.938,-0.273C20.56,0.022 19.126,0.196 17.691,0.19C16.259,0.173 14.822,0.063 13.444,-0.244C12.068,-0.543 10.734,-0.945 9.513,-1.498C8.29,-2.038 7.161,-2.678 6.173,-3.394C5.161,-4.074 4.319,-4.87 3.58,-5.616C3.232,-6.014 2.877,-6.371 2.586,-6.75C2.304,-7.139 2.025,-7.494 1.791,-7.845C1.565,-8.206 1.349,-8.535 1.166,-8.849C0.999,-9.175 0.846,-9.475 0.708,-9.746C0.416,-10.275 0.297,-10.726 0.169,-11.018C0.059,-11.318 0,-11.477 0,-11.477" style="fill:rgb(255,162,199);fill-rule:nonzero;"/>
        </g>
        <g transform="matrix(7.72172,0,0,7.72172,601.412,857.901)">
            <path d="M0,4.945C-2.959,4.138 -3.232,0.19 -0.76,-0.191C1.713,-0.571 1.713,0.95 1.332,1.902C0.951,2.853 2.092,5.516 0,4.945" style="fill:rgb(24,0,86);fill-rule:nonzero;"/>
        </g>
        <g transform="matrix(7.72172,0,0,7.72172,-3376.91,-1827.11)">
            <g transform="matrix(1.23555,0.217498,-0.217498,1.23555,248.944,-251.018)">
                <g>
                    <g transform="matrix(-0.10245,-0.994738,-0.994738,0.10245,251.52,425.232)">
                        <path d="M-8.536,-14.625C-16.445,-12.772 -17.278,5.393 -4.801,7.424C-4.801,7.424 -7.115,4.377 -8.536,-0.482C-10.055,-5.69 -8.036,-10.761 -6.775,-13.309C-4.72,-14.886 -6.864,-15.384 -8.536,-14.625" style="fill:rgb(24,0,86);fill-rule:nonzero;"/>
                    </g>
                    <g transform="matrix(1,0,0,1,247.468,439.709)">
                        <path d="M0,-6.293C-2.084,-3.373 -4.528,-3.471 -4.528,-3.471C-0.184,0 3.192,-3.484 3.192,-3.484L0,-6.293Z" style="fill:rgb(24,0,86);fill-rule:nonzero;"/>
                    </g>
                </g>
            </g>
            <g transform="matrix(-1.23555,0.217498,0.217498,1.23555,782.348,-251.018)">
                <g>
                    <g transform="matrix(-0.10245,-0.994738,-0.994738,0.10245,251.52,425.232)">
                        <path d="M-8.536,-14.625C-16.445,-12.772 -17.278,5.393 -4.801,7.424C-4.801,7.424 -7.115,4.377 -8.536,-0.482C-10.055,-5.69 -8.036,-10.761 -6.775,-13.309C-4.72,-14.886 -6.864,-15.384 -8.536,-14.625" style="fill:rgb(24,0,86);fill-rule:nonzero;"/>
                    </g>
                    <g transform="matrix(1,0,0,1,247.468,439.709)">
                        <path d="M0,-6.293C-2.084,-3.373 -4.528,-3.471 -4.528,-3.471C-0.184,0 3.192,-3.484 3.192,-3.484L0,-6.293Z" style="fill:rgb(24,0,86);fill-rule:nonzero;"/>
                    </g>
                </g>
            </g>
        </g>
    </g>
</svg>
